<svg width="612" height="612" viewBox="0 0 612 612" fill="none" xmlns="http://www.w3.org/2000/svg">
<g opacity="0.6">
<path d="M465.872 111.241C465.872 115.452 462.45 118.867 458.23 118.867C454.01 118.867 450.589 115.452 450.589 111.241C450.589 107.029 454.01 103.615 458.23 103.615C462.45 103.615 465.872 107.029 465.872 111.241Z" fill="#E6E6E6"/>
<path d="M382.1 82.0357C382.1 86.2474 378.679 89.6616 374.459 89.6616C370.238 89.6616 366.817 86.2474 366.817 82.0357C366.817 77.824 370.238 74.4098 374.459 74.4098C378.679 74.4098 382.1 77.8238 382.1 82.0357Z" fill="#F0F0F0"/>
<path d="M464.131 134.118C464.131 138.33 460.71 141.744 456.49 141.744C452.27 141.744 448.848 138.33 448.848 134.118C448.848 129.907 452.27 126.493 456.49 126.493C460.71 126.493 464.131 129.907 464.131 134.118Z" fill="#F0F0F0"/>
<path d="M446.92 193.048C446.92 197.26 443.499 200.674 439.279 200.674C435.059 200.674 431.637 197.26 431.637 193.048C431.637 188.837 435.059 185.422 439.279 185.422C443.499 185.422 446.92 188.837 446.92 193.048Z" fill="#F0F0F0"/>
<path d="M489.257 167.554C493.477 167.554 496.899 164.139 496.899 159.928C496.899 155.716 493.477 152.302 489.257 152.302C485.037 152.302 481.616 155.716 481.616 159.928C481.616 164.139 485.037 167.554 489.257 167.554Z" fill="#F5F5F5"/>
<path d="M499.617 118.867C499.617 123.078 496.195 126.492 491.975 126.492C487.755 126.492 484.333 123.078 484.333 118.867C484.333 114.655 487.755 111.241 491.975 111.241C496.195 111.241 499.617 114.655 499.617 118.867Z" fill="#F0F0F0"/>
<path d="M394.957 126.492C394.957 130.704 391.536 134.118 387.316 134.118C383.095 134.118 379.674 130.704 379.674 126.492C379.674 122.281 383.096 118.867 387.316 118.867C391.536 118.867 394.957 122.281 394.957 126.492Z" fill="#F0F0F0"/>
<path d="M478.898 196.788C478.898 201 475.477 204.414 471.257 204.414C467.036 204.414 463.615 201 463.615 196.788C463.615 192.576 467.036 189.162 471.257 189.162C475.477 189.162 478.898 192.576 478.898 196.788Z" fill="#E6E6E6"/>
<path d="M499.617 193.28C499.617 197.492 496.195 200.906 491.975 200.906C487.755 200.906 484.333 197.492 484.333 193.28C484.333 189.069 487.755 185.654 491.975 185.654C496.195 185.654 499.617 189.068 499.617 193.28Z" fill="#F0F0F0"/>
<path d="M463.245 171.401C463.245 175.613 459.824 179.027 455.604 179.027C451.384 179.027 447.962 175.613 447.962 171.401C447.962 167.189 451.384 163.775 455.604 163.775C459.824 163.775 463.245 167.189 463.245 171.401Z" fill="#F0F0F0"/>
<path d="M444.046 150.775C444.046 154.986 440.624 158.401 436.404 158.401C432.184 158.401 428.763 154.986 428.763 150.775C428.763 146.563 432.184 143.149 436.404 143.149C440.625 143.149 444.046 146.563 444.046 150.775Z" fill="#F0F0F0"/>
<path d="M424.869 176.603C424.869 180.815 421.448 184.229 417.228 184.229C413.007 184.229 409.586 180.815 409.586 176.603C409.586 172.391 413.008 168.977 417.228 168.977C421.448 168.977 424.869 172.392 424.869 176.603Z" fill="#F5F5F5"/>
<path d="M392.162 178.54C392.162 182.752 388.741 186.166 384.521 186.166C380.3 186.166 376.879 182.752 376.879 178.54C376.879 174.329 380.3 170.914 384.521 170.914C388.741 170.914 392.162 174.329 392.162 178.54Z" fill="#F0F0F0"/>
<path d="M418.251 134.118C422.472 134.118 425.893 130.704 425.893 126.492C425.893 122.281 422.472 118.867 418.251 118.867C414.031 118.867 410.61 122.281 410.61 126.492C410.61 130.704 414.031 134.118 418.251 134.118Z" fill="#F5F5F5"/>
<path d="M408.484 153.184C408.484 157.396 405.063 160.81 400.842 160.81C396.622 160.81 393.201 157.396 393.201 153.184C393.201 148.973 396.622 145.558 400.842 145.558C405.063 145.558 408.484 148.972 408.484 153.184Z" fill="#E6E6E6"/>
<path d="M435.772 99.3773C435.772 103.589 432.351 107.003 428.131 107.003C423.91 107.003 420.489 103.589 420.489 99.3773C420.489 95.1656 423.91 91.7514 428.131 91.7514C432.351 91.7514 435.772 95.1657 435.772 99.3773Z" fill="#F0F0F0"/>
<path d="M405.394 95.537C405.394 99.7487 401.973 103.163 397.753 103.163C393.532 103.163 390.111 99.7487 390.111 95.537C390.111 91.3253 393.532 87.9111 397.753 87.9111C401.973 87.9111 405.394 91.3255 405.394 95.537Z" fill="#F0F0F0"/>
<path d="M518.655 143.149C518.655 147.36 515.234 150.775 511.014 150.775C506.794 150.775 503.372 147.36 503.372 143.149C503.372 138.937 506.794 135.523 511.014 135.523C515.234 135.523 518.655 138.937 518.655 143.149Z" fill="#F5F5F5"/>
<path d="M528.287 176.853C528.287 181.065 524.866 184.479 520.646 184.479C516.425 184.479 513.004 181.065 513.004 176.853C513.004 172.641 516.425 169.227 520.646 169.227C524.866 169.227 528.287 172.641 528.287 176.853Z" fill="#F0F0F0"/>
<path d="M564.813 222.444C564.813 226.656 561.392 230.07 557.171 230.07C552.951 230.07 549.53 226.656 549.53 222.444C549.53 218.233 552.951 214.818 557.171 214.818C561.392 214.818 564.813 218.233 564.813 222.444Z" fill="#F5F5F5"/>
<path d="M533.905 224.386C533.905 228.598 530.484 232.012 526.264 232.012C522.044 232.012 518.622 228.598 518.622 224.386C518.622 220.174 522.043 216.76 526.264 216.76C530.484 216.76 533.905 220.174 533.905 224.386Z" fill="#F0F0F0"/>
<path d="M557.171 172.191C561.392 172.191 564.813 168.777 564.813 164.565C564.813 160.353 561.392 156.939 557.171 156.939C552.951 156.939 549.53 160.353 549.53 164.565C549.53 168.777 552.951 172.191 557.171 172.191Z" fill="#F5F5F5"/>
<path d="M555.567 194.202C555.567 198.414 552.146 201.828 547.926 201.828C543.705 201.828 540.284 198.414 540.284 194.202C540.284 189.99 543.705 186.576 547.926 186.576C552.146 186.576 555.567 189.99 555.567 194.202Z" fill="#E6E6E6"/>
<path d="M543.917 135.77C543.917 139.982 540.496 143.397 536.275 143.397C532.055 143.397 528.634 139.982 528.634 135.77C528.634 131.559 532.055 128.145 536.275 128.145C540.496 128.145 543.917 131.559 543.917 135.77Z" fill="#F0F0F0"/>
<path d="M324.478 109.457C324.478 113.669 321.057 117.083 316.837 117.083C312.616 117.083 309.195 113.669 309.195 109.457C309.195 105.246 312.616 101.831 316.837 101.831C321.057 101.831 324.478 105.246 324.478 109.457Z" fill="#E6E6E6"/>
<path d="M332.119 81.8266C332.119 86.0383 328.698 89.4525 324.478 89.4525C320.257 89.4525 316.836 86.0383 316.836 81.8266C316.836 77.6149 320.258 74.2007 324.478 74.2007C328.698 74.2007 332.119 77.6149 332.119 81.8266Z" fill="#F0F0F0"/>
<path d="M335.896 137.088C335.896 141.3 332.475 144.714 328.254 144.714C324.034 144.714 320.613 141.3 320.613 137.088C320.613 132.877 324.034 129.462 328.254 129.462C332.475 129.462 335.896 132.876 335.896 137.088Z" fill="#F0F0F0"/>
<path d="M361.971 122.515C361.971 126.727 358.55 130.141 354.329 130.141C350.109 130.141 346.688 126.727 346.688 122.515C346.688 118.303 350.109 114.889 354.329 114.889C358.55 114.889 361.971 118.303 361.971 122.515Z" fill="#F5F5F5"/>
<path d="M353.662 94.9957C353.662 99.2072 350.241 102.622 346.021 102.622C341.801 102.622 338.379 99.2072 338.379 94.9957C338.379 90.7838 341.801 87.3696 346.021 87.3696C350.241 87.3696 353.662 90.7838 353.662 94.9957Z" fill="#F0F0F0"/>
<path d="M350.866 172.234C350.866 176.445 347.445 179.86 343.224 179.86C339.004 179.86 335.583 176.445 335.583 172.234C335.583 168.022 339.004 164.608 343.224 164.608C347.445 164.608 350.866 168.022 350.866 172.234Z" fill="#E6E6E6"/>
<path d="M371.739 151.188C371.739 155.399 368.317 158.814 364.097 158.814C359.877 158.814 356.456 155.399 356.456 151.188C356.456 146.976 359.877 143.562 364.097 143.562C368.317 143.562 371.739 146.976 371.739 151.188Z" fill="#F0F0F0"/>
<path d="M118.134 122.516C118.448 126.716 122.114 129.867 126.322 129.554C130.531 129.241 133.688 125.582 133.374 121.382C133.061 117.182 129.395 114.031 125.186 114.344C120.977 114.658 117.82 118.316 118.134 122.516Z" fill="#E6E6E6"/>
<path d="M198.434 85.7336C198.748 89.9336 202.414 93.0845 206.622 92.7714C210.831 92.4582 213.988 88.7994 213.675 84.5994C213.361 80.3993 209.694 77.2484 205.486 77.5617C201.277 77.8749 198.12 81.5335 198.434 85.7336Z" fill="#F0F0F0"/>
<path d="M108.806 150.918C109.12 155.118 112.786 158.269 116.995 157.956C121.203 157.643 124.361 153.984 124.047 149.784C123.733 145.584 120.067 142.433 115.858 142.746C111.65 143.059 108.492 146.718 108.806 150.918Z" fill="#F0F0F0"/>
<path d="M142.065 201.249C142.379 205.449 146.045 208.6 150.254 208.287C154.462 207.974 157.619 204.315 157.306 200.115C156.992 195.915 153.326 192.764 149.117 193.077C144.909 193.391 141.751 197.049 142.065 201.249Z" fill="#F0F0F0"/>
<path d="M89.7572 171.929C90.071 176.129 93.737 179.28 97.9458 178.967C102.154 178.654 105.312 174.995 104.998 170.795C104.684 166.595 101.018 163.444 96.8093 163.757C92.6008 164.07 89.4434 167.729 89.7572 171.929Z" fill="#F5F5F5"/>
<path d="M83.9872 131.184C84.301 135.384 87.9673 138.535 92.1758 138.221C96.3843 137.908 99.5417 134.249 99.2279 130.049C98.914 125.849 95.2479 122.699 91.0393 123.012C86.8307 123.325 83.6734 126.984 83.9872 131.184Z" fill="#F0F0F0"/>
<path d="M188.925 131.021C189.239 135.221 192.905 138.372 197.113 138.059C201.322 137.746 204.479 134.087 204.165 129.887C203.852 125.687 200.186 122.536 195.977 122.85C191.768 123.163 188.611 126.821 188.925 131.021Z" fill="#F0F0F0"/>
<path d="M119.695 209.491C122.679 206.513 122.679 201.685 119.695 198.707C116.711 195.729 111.873 195.729 108.888 198.707C105.904 201.685 105.904 206.513 108.888 209.491C111.873 212.469 116.711 212.469 119.695 209.491Z" fill="#E6E6E6"/>
<path d="M81.4324 207.002C81.7462 211.203 85.4123 214.353 89.621 214.04C93.8295 213.727 96.9869 210.068 96.673 205.868C96.3592 201.668 92.693 198.517 88.4844 198.83C84.2759 199.144 81.1186 202.802 81.4324 207.002Z" fill="#F0F0F0"/>
<path d="M124.172 180.873C124.486 185.073 128.152 188.224 132.361 187.911C136.569 187.598 139.727 183.939 139.413 179.739C139.099 175.539 135.433 172.388 131.224 172.701C127.016 173.015 123.858 176.673 124.172 180.873Z" fill="#F0F0F0"/>
<path d="M141.782 158.879C142.096 163.079 145.762 166.23 149.97 165.917C154.179 165.604 157.336 161.945 157.022 157.745C156.709 153.545 153.043 150.394 148.834 150.707C144.625 151.021 141.468 154.679 141.782 158.879Z" fill="#F0F0F0"/>
<path d="M162.83 183.213C163.144 187.413 166.81 190.564 171.018 190.251C175.227 189.938 178.384 186.279 178.071 182.079C177.757 177.879 174.09 174.728 169.882 175.041C165.673 175.355 162.516 179.013 162.83 183.213Z" fill="#F5F5F5"/>
<path d="M195.591 182.718C195.904 186.918 199.57 190.069 203.779 189.755C207.988 189.442 211.145 185.784 210.831 181.584C210.517 177.383 206.851 174.233 202.643 174.546C198.434 174.859 195.277 178.518 195.591 182.718Z" fill="#F0F0F0"/>
<path d="M158.075 133.317C158.389 137.517 162.055 140.668 166.263 140.355C170.472 140.042 173.629 136.383 173.316 132.183C173.002 127.983 169.336 124.832 165.127 125.145C160.918 125.458 157.761 129.117 158.075 133.317Z" fill="#F5F5F5"/>
<path d="M177.425 158.643C177.739 162.843 181.405 165.994 185.613 165.681C189.822 165.368 192.979 161.709 192.665 157.509C192.351 153.309 188.685 150.158 184.477 150.471C180.268 150.784 177.111 154.443 177.425 158.643Z" fill="#E6E6E6"/>
<path d="M146.203 107.01C146.516 111.21 150.182 114.361 154.391 114.048C158.6 113.735 161.757 110.076 161.443 105.876C161.129 101.676 157.463 98.5254 153.255 98.8385C149.046 99.1517 145.889 102.811 146.203 107.01Z" fill="#F0F0F0"/>
<path d="M176.21 100.926C176.524 105.126 180.19 108.277 184.399 107.964C188.608 107.651 191.765 103.992 191.451 99.7921C191.137 95.5921 187.471 92.4412 183.263 92.7544C179.054 93.0676 175.897 96.7262 176.21 100.926Z" fill="#F0F0F0"/>
<path d="M68.6677 160.774C68.9817 164.974 72.6478 168.125 76.8565 167.812C81.065 167.499 84.2223 163.84 83.9085 159.64C83.5947 155.44 79.9286 152.289 75.7199 152.602C71.5113 152.916 68.3539 156.574 68.6677 160.774Z" fill="#F5F5F5"/>
<path d="M64.2591 188.5C64.5729 192.7 68.2392 195.851 72.4477 195.537C76.6562 195.224 79.8136 191.565 79.4998 187.365C79.186 183.165 75.5198 180.014 71.3112 180.328C67.1027 180.641 63.9453 184.3 64.2591 188.5Z" fill="#F0F0F0"/>
<path d="M34.3312 247.965C34.6451 252.165 38.3113 255.316 42.5199 255.003C46.7284 254.69 49.8858 251.031 49.572 246.831C49.2582 242.631 45.5919 239.48 41.3834 239.793C37.1747 240.106 34.0174 243.765 34.3312 247.965Z" fill="#F5F5F5"/>
<path d="M56.6173 232.51C56.9311 236.71 60.5972 239.861 64.8059 239.547C69.0144 239.234 72.1717 235.576 71.8579 231.375C71.5441 227.175 67.8778 224.024 63.6693 224.338C59.4608 224.651 56.3035 228.31 56.6173 232.51Z" fill="#F0F0F0"/>
<path d="M41.4469 172.801C41.7607 177.001 45.4269 180.152 49.6355 179.838C53.8442 179.525 57.0015 175.866 56.6877 171.666C56.3738 167.466 52.7076 164.315 48.499 164.629C44.2905 164.942 41.1331 168.601 41.4469 172.801Z" fill="#F5F5F5"/>
<path d="M33.8051 210.463C34.1189 214.663 37.7851 217.814 41.9937 217.5C46.2022 217.187 49.3595 213.529 49.0457 209.328C48.7319 205.128 45.0658 201.978 40.8571 202.291C36.6486 202.604 33.4913 206.263 33.8051 210.463Z" fill="#E6E6E6"/>
<path d="M49.0888 146.482C49.4027 150.682 53.0687 153.833 57.2774 153.52C61.486 153.207 64.6432 149.548 64.3294 145.348C64.0156 141.148 60.3495 137.997 56.141 138.31C51.9322 138.623 48.775 142.282 49.0888 146.482Z" fill="#F0F0F0"/>
<path d="M248.612 130.708C248.926 134.908 252.592 138.059 256.801 137.746C261.009 137.433 264.167 133.774 263.853 129.574C263.539 125.374 259.873 122.223 255.664 122.536C251.456 122.85 248.298 126.508 248.612 130.708Z" fill="#F0F0F0"/>
<path d="M220.02 133.047C220.334 137.247 224 140.398 228.209 140.085C232.417 139.771 235.574 136.113 235.261 131.913C234.947 127.713 231.28 124.562 227.072 124.875C222.863 125.188 219.706 128.847 220.02 133.047Z" fill="#F5F5F5"/>
<path d="M230.243 108.869C234.464 108.869 237.885 105.455 237.885 101.243C237.885 97.0315 234.464 93.6173 230.243 93.6173C226.023 93.6173 222.602 97.0315 222.602 101.243C222.602 105.455 226.023 108.869 230.243 108.869Z" fill="#F0F0F0"/>
<path d="M220.913 181.476C221.227 185.675 224.893 188.827 229.102 188.513C233.31 188.2 236.468 184.541 236.154 180.341C235.84 176.141 232.174 172.99 227.965 173.304C223.757 173.617 220.599 177.276 220.913 181.476Z" fill="#F0F0F0"/>
<path d="M320.225 164.608C320.225 168.82 316.804 172.234 312.584 172.234C308.363 172.234 304.942 168.82 304.942 164.608C304.942 160.396 308.363 156.982 312.584 156.982C316.804 156.982 320.225 160.396 320.225 164.608Z" fill="#F0F0F0"/>
<path d="M306.697 139.849C306.697 144.06 303.276 147.475 299.055 147.475C294.835 147.475 291.414 144.06 291.414 139.849C291.414 135.637 294.835 132.223 299.055 132.223C303.276 132.223 306.697 135.637 306.697 139.849Z" fill="#F0F0F0"/>
<path d="M287.69 172.234C287.69 176.446 284.269 179.86 280.048 179.86C275.828 179.86 272.407 176.446 272.407 172.234C272.407 168.022 275.828 164.608 280.048 164.608C284.269 164.608 287.69 168.022 287.69 172.234Z" fill="#F5F5F5"/>
<path d="M268.043 159.272C268.043 163.483 264.622 166.898 260.402 166.898C256.182 166.898 252.76 163.483 252.76 159.272C252.76 155.06 256.181 151.646 260.402 151.646C264.622 151.646 268.043 155.06 268.043 159.272Z" fill="#F0F0F0"/>
<path d="M280.048 123.345C284.269 123.345 287.69 119.931 287.69 115.719C287.69 111.507 284.269 108.093 280.048 108.093C275.828 108.093 272.407 111.507 272.407 115.719C272.407 119.931 275.828 123.345 280.048 123.345Z" fill="#F5F5F5"/>
<path d="M295.331 86.6548C295.331 90.8665 291.91 94.2808 287.69 94.2808C283.47 94.2808 280.048 90.8665 280.048 86.6548C280.048 82.443 283.47 79.0289 287.69 79.0289C291.91 79.0289 295.331 82.443 295.331 86.6548Z" fill="#F0F0F0"/>
<path d="M268.043 87.1133C268.043 91.325 264.622 94.7391 260.402 94.7391C256.182 94.7391 252.76 91.325 252.76 87.1133C252.76 82.9015 256.181 79.4874 260.402 79.4874C264.622 79.4874 268.043 82.9014 268.043 87.1133Z" fill="#F0F0F0"/>
</g>
<path d="M307.581 43.9041C307.581 43.4274 307.266 42.9507 306.635 42.5871C305.372 41.8597 303.325 41.8597 302.063 42.5871C301.432 42.9507 301.116 43.4273 301.116 43.904V262.036C301.116 262.513 301.432 262.989 302.063 263.353C303.325 264.08 305.372 264.08 306.635 263.353C307.266 262.989 307.581 262.513 307.581 262.036V43.9041Z" fill="#E0E0E0"/>
<path d="M302.063 42.5871C301.432 42.9507 301.116 43.4273 301.116 43.904C301.116 44.3805 301.432 44.8574 302.063 45.221C303.325 45.9484 305.372 45.9484 306.635 45.221C307.266 44.8574 307.581 44.3807 307.581 43.9041C307.581 43.4274 307.266 42.9507 306.635 42.5871C305.372 41.8597 303.325 41.8597 302.063 42.5871Z" fill="#F0F0F0"/>
<path d="M36.7314 133.908C36.7314 133.431 36.4157 132.955 35.7846 132.591C34.5222 131.864 32.4755 131.864 31.213 132.591C30.582 132.955 30.2663 133.431 30.2663 133.908V352.04C30.2663 352.517 30.582 352.993 31.213 353.357C32.4755 354.084 34.5222 354.084 35.7846 353.357C36.4158 352.993 36.7314 352.517 36.7314 352.04V133.908Z" fill="#E0E0E0"/>
<path d="M31.213 132.591C30.582 132.955 30.2663 133.431 30.2663 133.908C30.2663 134.385 30.582 134.861 31.213 135.225C32.4755 135.953 34.5222 135.953 35.7846 135.225C36.4157 134.862 36.7314 134.385 36.7314 133.908C36.7314 133.432 36.4157 132.955 35.7846 132.591C34.5222 131.864 32.4755 131.864 31.213 132.591Z" fill="#F0F0F0"/>
<path d="M571.966 133.908C571.966 133.431 572.282 132.955 572.913 132.591C574.175 131.864 576.222 131.864 577.485 132.591C578.116 132.955 578.431 133.431 578.431 133.908V352.04C578.431 352.517 578.116 352.993 577.485 353.357C576.222 354.084 574.175 354.084 572.913 353.357C572.282 352.993 571.966 352.517 571.966 352.04V133.908Z" fill="#E0E0E0"/>
<path d="M577.485 132.591C578.116 132.955 578.431 133.431 578.431 133.908C578.431 134.385 578.116 134.861 577.485 135.225C576.222 135.953 574.175 135.953 572.913 135.225C572.282 134.862 571.966 134.385 571.966 133.908C571.966 133.432 572.282 132.955 572.913 132.591C574.175 131.864 576.222 131.864 577.485 132.591Z" fill="#F0F0F0"/>
<path d="M159.576 66.1327C159.576 65.656 159.891 65.1794 160.522 64.8156C161.785 64.0882 163.832 64.0882 165.094 64.8156C165.725 65.1793 166.041 65.6558 166.041 66.1325V284.265C166.041 284.741 165.725 285.218 165.094 285.582C163.832 286.309 161.785 286.309 160.522 285.582C159.891 285.218 159.576 284.741 159.576 284.265V66.1327Z" fill="#E0E0E0"/>
<path d="M165.094 64.8156C165.725 65.1794 166.041 65.6558 166.041 66.1325C166.041 66.6091 165.725 67.0859 165.094 67.4496C163.832 68.177 161.785 68.177 160.522 67.4496C159.891 67.0859 159.576 66.6092 159.576 66.1327C159.576 65.656 159.891 65.1794 160.523 64.8156C161.785 64.0882 163.832 64.0882 165.094 64.8156Z" fill="#F0F0F0"/>
<path d="M448.922 66.1327C448.922 65.656 448.606 65.1794 447.975 64.8156C446.713 64.0882 444.666 64.0882 443.404 64.8156C442.773 65.1793 442.457 65.6558 442.457 66.1325V284.265C442.457 284.741 442.773 285.218 443.404 285.582C444.666 286.309 446.713 286.309 447.975 285.582C448.606 285.218 448.922 284.741 448.922 284.265V66.1327Z" fill="#E0E0E0"/>
<path d="M443.404 64.8156C442.773 65.1794 442.457 65.6558 442.457 66.1325C442.457 66.6091 442.773 67.0859 443.404 67.4496C444.666 68.177 446.713 68.177 447.975 67.4496C448.606 67.0859 448.922 66.6092 448.922 66.1327C448.922 65.656 448.606 65.1794 447.975 64.8156C446.713 64.0882 444.666 64.0882 443.404 64.8156Z" fill="#F0F0F0"/>
<path d="M605.2 305.577C589.662 282.755 565.281 261.353 532.051 242.988C407.219 173.999 204.825 173.998 79.9924 242.986C46.7627 261.35 22.3818 282.752 6.84326 305.573V417.332L605.2 417.336V305.577Z" fill="#FAFAFA"/>
<path d="M605.204 308.141C604.381 308.141 603.573 307.748 603.076 307.018C587.25 283.775 562.935 262.987 530.807 245.231C406.86 176.732 205.184 176.731 81.2372 245.229C49.1077 262.985 24.7926 283.772 8.96811 307.014C8.17279 308.185 6.57326 308.492 5.399 307.694C4.22474 306.899 3.91993 305.304 4.71777 304.132C21.0002 280.219 45.9075 258.892 78.7483 240.743C204.069 171.486 407.978 171.487 533.296 240.745C566.135 258.894 591.042 280.222 607.326 304.136C608.124 305.308 607.819 306.902 606.645 307.698C606.203 307.998 605.7 308.141 605.204 308.141Z" fill="#E0E0E0"/>
<path d="M605.201 175.764C604.997 175.764 604.795 175.665 604.67 175.483C588.671 151.988 564.135 130.998 531.74 113.095C407.281 44.3108 204.765 44.3096 80.3038 113.092C47.9072 130.995 23.37 151.985 7.37361 175.479C7.17296 175.774 6.77258 175.847 6.48167 175.649C6.1881 175.45 6.11292 175.051 6.31106 174.759C22.4216 151.097 47.1067 129.972 79.6816 111.97C204.487 42.9988 407.559 43.0013 532.362 111.973C564.935 129.974 589.62 151.1 605.733 174.762C605.931 175.055 605.856 175.454 605.562 175.653C605.452 175.728 605.327 175.764 605.201 175.764Z" fill="#E0E0E0"/>
<path d="M611.501 441.575C611.776 347.453 475.223 270.717 306.499 270.181C137.776 269.644 0.775128 345.511 0.499347 439.634C0.223565 533.757 136.777 610.493 305.501 611.029C474.224 611.565 611.225 535.698 611.501 441.575Z" fill="#D2483D"/>
<path opacity="0.5" d="M611.501 441.575C611.776 347.453 475.223 270.717 306.499 270.181C137.776 269.644 0.775128 345.511 0.499347 439.634C0.223565 533.757 136.777 610.493 305.501 611.029C474.224 611.565 611.225 535.698 611.501 441.575Z" fill="white"/>
<path d="M224.176 276.178L386.357 369.623L72.9025 550.228C76.0188 552.282 79.2423 554.303 82.5598 556.293L396.449 375.438L597.928 491.525C599.582 488.535 601.096 485.527 602.448 482.5L240.493 273.95C235.024 274.605 229.585 275.353 224.176 276.178Z" fill="white"/>
<path opacity="0.1" d="M580.034 479.524L456.215 408.183L383.084 450.319L375.374 445.876L356.08 456.82L494.319 536.471L513.614 525.527L506.904 521.66L580.034 479.524Z" fill="black"/>
<path opacity="0.1" d="M212.278 583.199C251.401 583.199 283.116 564.925 283.116 542.384C283.116 519.842 251.401 501.568 212.278 501.568C173.155 501.568 141.439 519.842 141.439 542.384C141.439 564.925 173.155 583.199 212.278 583.199Z" fill="black"/>
<path d="M413.304 439.012L514.194 497.039L564.453 468.081L463.564 410.054L413.304 439.012Z" fill="#455A64"/>
<path d="M514.194 505.641V497.039L413.304 439.012V447.614L514.194 505.641Z" fill="#37474F"/>
<path d="M564.453 468.081L514.194 497.039V505.641L564.453 476.683V468.081Z" fill="#263238"/>
<path d="M458.781 47.9929L468.03 53.3212L495.727 453.547L486.478 448.218L458.781 47.9929Z" fill="#E0E0E0"/>
<path opacity="0.1" d="M458.781 47.9929L468.03 53.3212L495.727 453.547L486.478 448.218L458.781 47.9929Z" fill="black"/>
<path d="M495.727 453.547L503.485 449.077L475.216 40.5223L475.218 40.5094L385.651 68.9301V79.443L433.981 64.1137L470.399 87.8085L495.727 453.547ZM444.898 60.6533L468.03 53.3211L469.64 76.7507L444.898 60.6533Z" fill="#EBEBEB"/>
<path d="M465.969 35.1809L475.218 40.5093L385.651 68.93L376.401 63.6017L465.969 35.1809Z" fill="#F5F5F5"/>
<path d="M376.401 63.6018L385.651 68.9301V79.443L376.401 74.1147V63.6018Z" fill="#E0E0E0"/>
<path d="M433.269 64.3396L433.981 64.1137L470.399 87.8085L461.15 82.4801L433.269 64.3396Z" fill="#E0E0E0"/>
<path opacity="0.1" d="M433.269 64.3396L433.981 64.1137L470.399 87.8085L461.15 82.4801L433.269 64.3396Z" fill="black"/>
<path d="M300.817 3.62048L439.057 83.2709V200.067L300.817 120.417V3.62048Z" fill="#37474F"/>
<path d="M306.864 116.931V14.0728L433.008 86.7546V189.617L306.864 116.931Z" fill="#FAFAFA"/>
<path d="M399.188 151.72L340.684 118.008V69.8579L399.188 103.567V151.72ZM342.007 117.246L397.864 149.432V104.329L342.007 72.1462V117.246Z" fill="#D2483D"/>
<path d="M445.341 79.6504L439.057 83.2709L300.817 3.62049L307.101 0L445.341 79.6504Z" fill="#455A64"/>
<path d="M439.057 200.067V83.2709L445.341 79.6504V196.447L439.057 200.067Z" fill="#263238"/>
<path d="M359.389 135.909V142.06L372.284 149.49V143.339L359.389 135.909Z" fill="#D2483D"/>
<path opacity="0.35" d="M359.389 135.909V142.06L372.284 149.49V143.339L359.389 135.909Z" fill="black"/>
<path d="M364.011 128.363L351.116 135.793L364.011 143.223L376.906 135.793L364.011 128.363Z" fill="#D2483D"/>
<path d="M364.011 143.223V149.373L372.284 144.607V149.49L376.906 146.827V135.793L364.011 143.223Z" fill="#D2483D"/>
<path opacity="0.2" d="M364.011 143.223V149.373L372.284 144.607V149.49L376.906 146.827V135.793L364.011 143.223Z" fill="black"/>
<path d="M351.116 135.793V141.944L364.011 149.373V143.223L351.116 135.793Z" fill="#D2483D"/>
<path opacity="0.35" d="M351.116 135.793V141.944L364.011 149.373V143.223L351.116 135.793Z" fill="black"/>
<path d="M340.954 169.01C340.749 169.01 340.546 168.914 340.416 168.734C335.745 162.227 331.662 152.143 329.67 144.673C327.209 154.668 321.421 161.97 317.996 165.595C317.744 165.861 317.326 165.874 317.06 165.623C316.794 165.373 316.781 164.955 317.032 164.69C320.681 160.828 327.081 152.685 328.971 141.534C329.024 141.221 329.293 140.99 329.611 140.984C329.92 140.952 330.205 141.198 330.271 141.509C331.827 148.925 336.289 160.718 341.492 167.965C341.705 168.261 341.637 168.674 341.339 168.886C341.223 168.97 341.088 169.01 340.954 169.01Z" fill="#263238"/>
<path d="M329.624 168.578C329.412 168.578 329.202 168.476 329.076 168.288C324.73 161.861 320.834 150.901 319.715 144.433C319.653 144.074 319.895 143.732 320.255 143.67C320.607 143.61 320.958 143.848 321.02 144.209C322.115 150.543 325.926 161.267 330.172 167.548C330.377 167.851 330.297 168.262 329.993 168.466C329.881 168.542 329.752 168.578 329.624 168.578Z" fill="#263238"/>
<path d="M319.962 166.938C319.719 166.938 319.485 166.804 319.369 166.571C317.011 161.828 314.001 154.397 312.625 147.763C312.551 147.407 312.781 147.057 313.139 146.983C313.488 146.914 313.847 147.138 313.921 147.496C315.271 154.006 318.233 161.315 320.555 165.984C320.717 166.31 320.584 166.707 320.257 166.869C320.161 166.916 320.061 166.938 319.962 166.938Z" fill="#263238"/>
<path d="M309.125 158.759C308.925 158.759 308.726 158.668 308.595 158.495C308.377 158.202 308.436 157.789 308.728 157.57C313.304 154.148 316.791 148.903 317.613 144.208C317.675 143.846 318.021 143.609 318.379 143.67C318.739 143.733 318.98 144.075 318.916 144.435C318.027 149.521 314.427 154.959 309.522 158.627C309.403 158.716 309.264 158.759 309.125 158.759Z" fill="#263238"/>
<path d="M330.408 169.01C330.274 169.01 330.139 168.97 330.023 168.887C329.726 168.674 329.657 168.262 329.871 167.966C335.076 160.715 339.536 148.923 341.091 141.51C341.156 141.199 341.426 140.954 341.752 140.985C342.07 140.991 342.338 141.222 342.391 141.535C344.282 152.687 350.683 160.829 354.331 164.691C354.581 164.956 354.568 165.374 354.302 165.624C354.036 165.875 353.618 165.862 353.366 165.596C349.942 161.971 344.156 154.67 341.692 144.673C339.702 152.142 335.62 162.225 330.946 168.734C330.817 168.914 330.614 169.01 330.408 169.01Z" fill="#263238"/>
<path d="M341.739 168.578C341.611 168.578 341.481 168.542 341.369 168.466C341.065 168.261 340.985 167.851 341.191 167.548C345.437 161.27 349.247 150.545 350.342 144.209C350.404 143.849 350.753 143.609 351.107 143.67C351.468 143.732 351.709 144.074 351.647 144.433C350.528 150.904 346.631 161.864 342.287 168.288C342.159 168.477 341.951 168.578 341.739 168.578Z" fill="#263238"/>
<path d="M351.4 166.938C351.301 166.938 351.201 166.916 351.106 166.869C350.779 166.707 350.645 166.31 350.807 165.984C353.131 161.312 356.093 154.002 357.442 147.496C357.515 147.138 357.871 146.914 358.224 146.983C358.582 147.057 358.812 147.406 358.737 147.763C357.364 154.393 354.352 161.825 351.994 166.571C351.877 166.804 351.643 166.938 351.4 166.938Z" fill="#263238"/>
<path d="M362.237 158.759C362.099 158.759 361.959 158.716 361.84 158.627C356.935 154.959 353.335 149.521 352.446 144.435C352.383 144.075 352.623 143.733 352.984 143.67C353.337 143.609 353.686 143.846 353.749 144.208C354.571 148.903 358.058 154.148 362.634 157.57C362.926 157.789 362.985 158.202 362.767 158.495C362.636 158.667 362.437 158.759 362.237 158.759Z" fill="#263238"/>
<path d="M358.489 138.926C345.892 131.661 325.47 131.661 312.873 138.926C306.58 142.547 303.423 147.31 303.423 152.062V157.83C303.423 162.593 306.58 167.345 312.873 170.977C325.47 178.231 345.892 178.231 358.489 170.977C364.793 167.345 367.94 162.593 367.94 157.83V152.062C367.94 147.31 364.793 142.547 358.489 138.926ZM355.301 162.917C344.466 168.915 326.897 168.915 316.062 162.917C311.981 160.656 309.443 157.872 308.436 154.951C309.433 152.031 311.981 149.247 316.062 146.985C326.897 140.988 344.466 140.988 355.301 146.985C359.391 149.247 361.94 152.031 362.937 154.951C361.93 157.872 359.391 160.656 355.301 162.917Z" fill="#263238"/>
<path d="M358.489 138.926C345.892 131.661 325.47 131.661 312.873 138.926C306.58 142.547 303.423 147.31 303.423 152.062C303.423 155.883 305.447 159.683 309.496 162.907C309.506 162.917 309.506 162.928 309.506 162.928C310.503 163.723 311.625 164.487 312.873 165.209C325.47 172.464 345.892 172.464 358.5 165.209C359.748 164.487 360.87 163.723 361.867 162.928C361.867 162.928 361.867 162.917 361.877 162.907C365.916 159.683 367.94 155.883 367.94 152.062C367.94 147.31 364.793 142.547 358.489 138.926ZM355.301 162.917C344.466 168.915 326.897 168.915 316.062 162.917C311.981 160.656 309.443 157.872 308.436 154.951C309.433 152.031 311.981 149.247 316.062 146.985C326.897 140.988 344.466 140.988 355.301 146.985C359.391 149.247 361.94 152.031 362.937 154.951C361.93 157.872 359.391 160.656 355.301 162.917Z" fill="#455A64"/>
<path d="M363.43 152.062C363.43 153.036 363.262 153.999 362.937 154.951C361.94 152.031 359.391 149.247 355.301 146.985C344.466 140.988 326.897 140.988 316.062 146.985C311.981 149.247 309.433 152.031 308.436 154.951C308.111 153.999 307.943 153.036 307.943 152.062C307.943 148.137 310.649 144.212 316.062 141.207C326.897 135.22 344.466 135.22 355.301 141.207C360.723 144.212 363.43 148.137 363.43 152.062Z" fill="#37474F"/>
<path d="M343.282 219.575C343.116 219.575 342.95 219.513 342.822 219.389C332.232 209.152 322.918 192.646 317.616 174.843C316.398 180.115 314.973 183.416 314.903 183.574C314.757 183.909 314.365 184.063 314.033 183.916C313.697 183.77 313.544 183.381 313.691 183.047C313.709 183.004 315.61 178.599 316.868 171.97C316.924 171.668 317.183 171.446 317.492 171.434C317.77 171.415 318.075 171.623 318.156 171.919C323.242 190.478 332.807 207.869 343.742 218.441C344.004 218.694 344.011 219.112 343.758 219.374C343.627 219.508 343.455 219.575 343.282 219.575Z" fill="#263238"/>
<path d="M328.08 219.575C327.875 219.575 327.672 219.479 327.543 219.3C322.998 212.985 319.798 207.548 316.887 198.443C316.776 198.095 316.968 197.724 317.316 197.613C317.669 197.502 318.037 197.695 318.148 198.042C321.006 206.98 324.151 212.322 328.618 218.529C328.831 218.826 328.763 219.238 328.467 219.451C328.349 219.535 328.215 219.575 328.08 219.575Z" fill="#263238"/>
<path d="M317.518 197.651C317.357 197.651 317.196 197.593 317.068 197.475C316.8 197.228 316.784 196.81 317.032 196.542C317.111 196.456 324.991 187.85 328.994 174.96C329.101 174.612 329.467 174.416 329.823 174.525C330.172 174.632 330.367 175.003 330.258 175.351C326.162 188.538 318.085 197.352 318.004 197.439C317.873 197.58 317.696 197.651 317.518 197.651Z" fill="#263238"/>
<path d="M318.548 213.628C318.465 213.628 318.382 213.613 318.302 213.581C318.052 213.481 317.886 213.238 317.886 212.968C317.886 188.446 309.747 172.411 305.836 164.705C305.506 164.053 305.206 163.462 304.944 162.932C304.783 162.605 304.917 162.209 305.246 162.048C305.572 161.889 305.971 162.021 306.132 162.349C306.391 162.875 306.689 163.461 307.017 164.108C310.886 171.731 318.844 187.408 319.198 211.314C332.383 197.21 338.955 186.297 341.086 175.033C341.153 174.673 341.506 174.442 341.859 174.507C342.218 174.575 342.455 174.92 342.386 175.278C340.144 187.127 333.159 198.535 319.029 213.422C318.901 213.556 318.726 213.628 318.548 213.628Z" fill="#263238"/>
<path d="M328.08 219.575C327.907 219.575 327.735 219.508 327.605 219.374C327.35 219.112 327.358 218.694 327.62 218.44C338.556 207.868 348.121 190.477 353.206 171.919C353.287 171.622 353.592 171.396 353.87 171.434C354.179 171.446 354.438 171.668 354.495 171.97C355.752 178.599 357.654 183.003 357.672 183.047C357.818 183.381 357.665 183.77 357.329 183.916C356.996 184.063 356.605 183.909 356.459 183.574C356.39 183.416 354.964 180.116 353.746 174.843C348.446 192.645 339.132 209.152 328.54 219.389C328.413 219.513 328.246 219.575 328.08 219.575Z" fill="#263238"/>
<path d="M343.282 219.575C343.147 219.575 343.013 219.535 342.895 219.451C342.599 219.238 342.531 218.825 342.744 218.529C347.212 212.32 350.359 206.977 353.214 198.042C353.326 197.695 353.692 197.502 354.046 197.613C354.394 197.724 354.586 198.095 354.475 198.443C351.567 207.545 348.365 212.983 343.82 219.3C343.69 219.479 343.487 219.575 343.282 219.575Z" fill="#263238"/>
<path d="M353.845 197.651C353.666 197.651 353.489 197.58 353.359 197.439C353.277 197.352 345.2 188.538 341.104 175.351C340.995 175.003 341.191 174.633 341.54 174.525C341.896 174.419 342.261 174.613 342.368 174.96C346.371 187.85 354.252 196.456 354.331 196.542C354.579 196.81 354.562 197.228 354.294 197.476C354.166 197.593 354.005 197.651 353.845 197.651Z" fill="#263238"/>
<path d="M352.814 213.629C352.636 213.629 352.462 213.557 352.334 213.422C338.204 198.535 331.219 187.128 328.976 175.279C328.908 174.92 329.144 174.575 329.503 174.507C329.856 174.443 330.209 174.674 330.276 175.033C332.408 186.298 338.979 197.21 352.164 211.315C352.52 187.414 360.475 171.735 364.344 164.112C364.673 163.464 364.971 162.876 365.232 162.349C365.393 162.022 365.79 161.891 366.117 162.048C366.445 162.209 366.58 162.605 366.418 162.932C366.157 163.464 365.856 164.056 365.525 164.708C361.614 172.415 353.476 188.45 353.476 212.968C353.476 213.239 353.311 213.482 353.06 213.582C352.98 213.613 352.897 213.629 352.814 213.629Z" fill="#263238"/>
<path d="M256.466 369.259C254.457 355.076 251.934 345.882 250.491 341.359H245.581L232.371 353.049L220.682 376.942C220.682 376.942 219.753 396.245 223.097 409.543C216.932 412.514 211.915 417.772 201.703 431.656C196.947 438.122 190.303 445.295 185.329 450.544C182.443 452.035 179.106 453.061 176.48 455.001C174.126 456.739 171.818 458.611 171.694 461.798C171.617 463.766 172.375 465.661 172.678 467.607C173.418 472.368 171.418 477.107 171.142 481.917C170.76 488.578 173.95 495.338 179.337 499.287C180.957 500.475 182.821 501.438 184.827 501.576C186.24 501.673 187.428 500.772 188.069 499.566C188.843 498.112 189.091 496.44 189.228 494.799C189.737 488.71 188.898 482.484 190.29 476.534C191.138 472.908 192.731 468.872 195.587 466.386C197.859 464.407 200.681 462.37 203.118 460.6C216.499 450.882 226.905 444.393 241.474 434.296C255.027 424.904 259.454 421.327 259.585 412.543C259.82 396.695 259.97 393.993 256.466 369.259Z" fill="#C8856A"/>
<path d="M241.474 434.296C245.87 431.25 249.292 428.819 251.933 426.62L243.949 379.93L244.114 344.955L241.799 344.706L232.371 353.049L220.682 376.942C220.682 376.942 219.753 396.245 223.097 409.543C217.018 412.473 212.045 417.643 202.118 431.096C206.502 431.876 209.894 432.056 209.894 432.056C209.894 432.056 214.027 442.951 214.358 443.845C213.139 447.84 212.566 451.314 212.316 454.083C221.72 447.57 230.394 441.975 241.474 434.296Z" fill="#AF6152"/>
<path d="M252.002 340.87C260.192 361.828 263.044 393.992 263.896 402.766C255.204 411.541 227.656 414.838 220.125 407.406C220.263 406.438 210.548 342.449 210.548 342.449L252.002 340.87Z" fill="#455A64"/>
<path d="M263.148 395.252C261.758 396.145 260.348 397.006 258.859 397.757C255.738 399.33 252.484 400.617 249.118 401.563C242.468 403.432 235.464 404.072 228.593 403.296C225.438 402.939 222.405 402.169 219.346 401.427C219.423 401.973 219.497 402.491 219.564 402.973C222.124 403.864 224.887 404.335 227.518 404.676C230.909 405.116 234.348 405.234 237.762 405.033C244.779 404.62 251.718 402.856 258.06 399.826C259.812 398.989 261.615 398.05 263.328 396.975C263.272 396.425 263.211 395.847 263.148 395.252Z" fill="#263238"/>
<path opacity="0.3" d="M249.442 361.439C249.33 369.312 242.284 377.969 242.284 377.969L248.19 410.054C237.341 412.504 224.828 412.048 220.125 407.406C220.213 406.787 216.271 380.387 213.418 361.439H249.442Z" fill="black"/>
<path d="M194.348 501.791C193.593 503.586 192.484 506.537 186.796 507.989C181.134 509.433 177.446 508.262 173.095 504.978C168.745 501.694 166.608 494.174 166.588 489.569C166.567 484.704 167.691 480.624 167.98 477.411C168.351 473.284 165.719 469.436 164.877 465.267C164.035 461.098 163.584 455.846 166.019 453.395C168.455 450.943 176.55 448.948 180.204 450.767L181.677 496.306L194.503 501.494" fill="#37474F"/>
<path d="M168.912 489.327C169.193 485.665 170.536 479.677 170.959 476.018C171.383 472.358 167.113 460.617 169.155 455.215C171.197 449.813 178.911 450.035 181.514 451.135C184.117 452.235 186.428 455.155 189.292 457.133C192.157 459.109 192.54 459.786 192.603 462.096L192.615 462.461C192.615 462.461 192.492 465.864 192.081 471.212C191.671 476.559 188.509 483.247 190.159 487.383C191.81 491.519 194.89 493.097 195.014 499.443C195.137 505.789 182.82 505.957 176.762 502.636C170.704 499.314 168.539 494.185 168.912 489.327Z" fill="#455A64"/>
<path d="M168.912 489.327C169.193 485.665 170.991 479.72 170.959 476.018C170.908 470.004 167.113 460.617 169.155 455.215C171.197 449.813 178.911 450.035 181.514 451.135C184.117 452.235 186.428 455.155 189.292 457.133C189.938 457.578 190.593 458.032 191.178 458.565C191.68 459.024 192.205 459.33 192.748 459.737C194.006 460.682 195.016 461.993 195.61 463.478C195.724 463.763 195.824 464.061 195.835 464.367C195.846 464.697 195.751 465.017 195.657 465.329C194.216 470.133 192.775 474.936 191.334 479.74C190.722 481.779 190.402 483.953 190.668 486.116C190.942 488.34 191.856 490.413 192.994 492.307C194.318 494.509 194.964 496.884 195.014 499.443C195.137 505.789 182.82 505.957 176.762 502.636C170.704 499.314 168.539 494.185 168.912 489.327Z" fill="#455A64"/>
<path d="M172.093 471.158C172.238 466.847 170.228 462.164 172.143 458.128C172.571 457.226 173.352 456.364 174.077 455.72C174.383 455.448 174.953 454.856 175.409 454.887C176.119 454.935 175.856 455.452 176.353 455.651C177.066 455.937 177.479 456.764 177.537 457.55C177.594 458.336 177.368 459.099 177.166 459.849C176.461 462.47 176.026 465.177 175.868 467.913C175.792 469.211 175.988 470.635 175.793 471.906C175.626 472.993 175.236 473.983 175.144 475.112C174.75 479.937 175.103 484.845 175.901 489.652C175.866 490.824 177.62 494.296 176.103 494.418C172.954 493.116 172.322 488.337 172.009 485.261C171.249 480.594 172.594 475.824 172.093 471.158Z" fill="#D2483D"/>
<path d="M182.528 447.905C183.671 447.233 184.669 446.348 185.804 445.665C186.461 445.27 187.219 444.811 187.948 445.099C188.656 445.378 188.989 446.281 188.91 447.053C188.831 447.825 188.446 448.509 188.12 449.198C187.089 451.383 186.705 454.736 186.19 457.125C186.094 457.57 185.93 458.088 185.505 458.195C185.316 458.243 185.115 458.193 184.922 458.145C182.36 457.507 180.078 457.723 177.935 459.199C177.517 459.486 177.103 459.797 176.621 459.948C175.848 460.19 175.029 459.98 174.304 459.614C173.916 459.418 173.549 459.178 173.193 458.922C173.021 458.798 172.856 458.661 172.683 458.538C172.395 458.334 172.21 458.112 171.98 457.81C171.409 457.059 169.375 454.728 169.375 454.728C170.146 451.726 172.748 450.316 173.927 450.062C175.798 449.548 177.29 449.715 178.87 449.332C181.509 448.692 182.046 448.188 182.528 447.905Z" fill="#37474F"/>
<path d="M173.658 496.858C175.82 498.696 177.845 499.677 180.522 500.394C181.745 500.722 186.167 501.211 189.745 498.776C190.768 498.08 191.752 496.887 192.315 495.73C192.649 495.042 193.183 492.616 192.739 491.909C193.914 493.78 194.943 495.838 195.014 499.443C195.137 505.789 182.81 507.875 176.752 504.553C170.693 501.232 168.539 494.185 168.912 489.327C168.937 489.01 168.978 488.655 169.017 488.307C169.991 492.688 171.422 494.958 173.658 496.858Z" fill="#D2483D"/>
<path d="M184.938 448.889C187.437 448.059 189.858 444.174 191.335 442.161C192.812 440.148 194.274 438.149 195.604 439.225L194.178 441.228C194.178 441.228 194.728 446.42 199.032 451.544C203.335 456.668 207.244 457.557 207.244 457.557L208.904 456.463C208.904 456.463 210.017 457.691 207.458 459.165C204.899 460.639 198.639 463.197 195.81 466.558C192.981 469.919 183.86 457.899 183.86 457.899C183.86 457.899 184.479 455.511 184.549 454.086C184.619 452.661 184.8 450.849 184.938 448.889Z" fill="#E0E0E0"/>
<path d="M204.746 459.322C204.034 459.155 203.239 458.879 202.549 458.556C201.059 457.857 199.71 456.759 198.531 455.476C197.307 454.144 196.23 452.631 195.25 451.072C194.258 449.494 193.388 446.87 192.936 445.046C192.694 444.069 192.545 443.068 192.476 442.077C192.445 441.626 192.434 441.171 192.424 440.72C192.202 440.996 191.979 441.291 191.755 441.592C191.757 441.679 191.76 441.767 191.763 441.85C191.795 442.81 191.919 443.772 192.127 444.725C192.542 446.62 193.366 449.331 194.356 450.99C196.298 454.244 198.838 457.505 202.052 459.089C202.879 459.495 204.565 459.986 205.435 460.128L205.604 460.143C206.035 459.924 206.32 459.78 206.695 459.583C206.341 459.589 205.631 459.529 204.746 459.322Z" fill="#D2483D"/>
<path d="M182.479 460.547C179.018 468.031 178.364 477.076 180.457 485.233C180.564 485.65 180.678 486.065 180.8 486.477C180.909 486.85 181.074 487.275 181.432 487.392C181.614 487.452 181.809 487.414 181.993 487.376C184.013 486.957 185.949 486.48 187.817 485.577C188.251 485.367 188.689 485.132 188.996 484.752C189.467 484.165 189.577 483.253 189.771 482.535C190.028 481.585 190.211 480.609 190.468 479.657C190.99 477.722 191.631 475.829 192.316 473.955C193.142 471.691 194.344 469.291 195.836 467.428C196.737 466.305 197.861 465.18 197.908 463.694C198.016 460.243 192.38 456.521 189.658 455.55C188.534 455.149 187.281 454.924 186.209 455.386C185.149 455.843 184.456 456.883 183.86 457.9C183.358 458.756 182.898 459.64 182.479 460.547Z" fill="#263238"/>
<path d="M246.151 460.971C251.21 440.816 249.968 436.31 247.458 422.603C243.765 402.435 241.995 396.943 237.961 375.47C248.923 363.664 249.419 354.857 248.51 341.359H198.067C185.181 365.886 188.883 371.877 199.686 400.267C205.314 415.058 217.741 442.902 217.741 442.902C213.323 455.129 213.953 459.778 214.277 473.622C214.392 478.539 215.115 486.014 215.18 492.436L215.393 494.884C215.393 494.884 215.724 503.892 215.623 504.063C215.446 504.362 215.291 504.673 215.144 504.988C214.752 505.829 214.333 506.73 214.095 507.627C213.854 508.539 213.279 509.254 212.795 510.069C212.214 511.047 211.688 512.063 211.314 513.138C210.661 515.014 210.493 517.134 211.276 518.96C212.138 520.971 213.995 522.345 215.433 523.996C217.757 526.665 218.983 530.042 220.406 533.226C221.118 534.817 221.884 536.395 222.873 537.836C223.871 539.29 225.059 540.24 226.373 541.353C227.796 542.559 229.536 543.272 231.252 543.955C232.819 544.58 234.393 545.207 236.031 545.616C237.336 545.943 238.673 546.13 240.014 546.243C241.318 546.353 242.641 546.393 243.927 546.151C245.31 545.891 246.526 545.173 247.725 544.5C248.978 543.797 249.326 541.781 249.138 540.484C248.997 539.511 248.592 538.595 248.114 537.736C247.896 537.344 247.663 536.963 247.417 536.591C245.119 533.11 241.714 530.438 238.971 527.257C237.769 525.862 236.692 524.365 235.69 522.822C235.2 522.067 232.041 516.968 232.041 509.436C232.041 506.789 235.944 498.884 235.944 498.884L236.5 496.978C239.618 487.542 243.206 472.704 246.151 460.971Z" fill="#C8856A"/>
<path d="M249.442 340.851C251.93 349.575 253.493 358.44 247.828 366.653C242.731 374.042 239.355 376.105 239.355 376.105L246.784 414.254C246.784 414.254 242.852 422.423 228.09 427.408C213.327 432.394 200.86 427.408 200.86 427.408C200.86 427.408 202.258 423.232 196.61 402.766C191.153 382.993 189.477 374.699 189.387 367.01C189.297 359.321 190.536 349.397 190.372 340.851H249.442Z" fill="#455A64"/>
<path d="M245.113 405.674C243.82 408.327 241.456 410.413 239.096 412.097C236.099 414.237 232.884 416.086 229.515 417.58C223.691 420.164 217.368 421.617 210.998 421.698C210.758 420.517 210.512 419.337 210.245 418.162C207.872 407.716 204.578 397.492 202.492 386.978C201.458 381.767 200.737 376.486 200.58 371.172C200.504 368.607 200.548 366.025 200.886 363.478C201.231 360.872 201.982 358.459 203.011 356.047C203.264 355.456 202.277 355.217 201.994 355.668C200.457 358.129 199.783 361.114 199.448 363.966C199.111 366.829 199.115 369.738 199.238 372.614C199.695 383.366 202.502 393.852 205.271 404.196C206.678 409.451 208.097 414.707 209.247 420.026C209.367 420.582 209.471 421.141 209.586 421.699C208.811 421.683 208.037 421.662 207.263 421.604C205.012 421.437 202.785 421.069 200.586 420.569C200.654 421.049 200.712 421.498 200.761 421.917C203.711 422.672 206.794 423.032 209.865 423.08C210.186 424.728 210.488 426.38 210.746 428.04C210.82 428.52 210.885 429.002 210.951 429.484C211.401 429.519 211.865 429.547 212.337 429.57C212.221 428.704 212.093 427.843 211.963 426.992C211.762 425.683 211.524 424.38 211.274 423.079C213.61 423.042 215.927 422.833 218.16 422.466C225.723 421.223 232.97 418.128 239.246 413.762C241.648 412.092 244.138 410.133 245.474 407.527L245.113 405.674Z" fill="#263238"/>
<path d="M252.852 541.224C253.442 543.079 256.897 546.193 254.314 551.454C252.033 556.098 245.407 558.043 239.353 557.466C233.923 556.948 228.571 554.806 225.396 550.109C222.67 546.076 220.77 542.021 218.906 539.387C216.51 536.002 212.008 534.77 208.661 532.137C205.315 529.504 201.563 525.794 201.829 522.352C202.094 518.909 206.968 512.158 210.933 511.183L241.603 544.935L252.852 541.224Z" fill="#37474F"/>
<path d="M227.347 547.864C225.186 544.892 222.698 539.201 220.272 536.4C216.331 531.85 207.348 527.149 205.399 521.712C203.45 516.276 209.473 511.461 212.17 510.617C214.867 509.773 218.524 510.505 221.989 510.161C222.771 510.084 223.564 510.006 224.356 510.035C225.036 510.06 225.635 509.953 226.313 509.913C227.537 509.841 229.066 509.943 230.108 510.647C231.058 511.288 232.223 511.643 233.058 512.453C233.678 513.054 234.08 513.844 234.4 514.645C235.024 516.205 235.379 517.858 235.926 519.445C236.579 521.342 237.503 523.134 238.541 524.847C242.17 530.84 247.194 535.733 252.383 540.394C253.41 541.316 253.851 541.919 254.55 543.125C255.385 544.565 255.182 546.729 254.55 548.272C253.222 551.514 250.959 553.034 247.675 553.773C243.626 554.685 239.678 554.719 235.654 553.391C232.42 552.324 229.384 550.665 227.347 547.864Z" fill="#455A64"/>
<path d="M217.983 531.964C215.296 528.585 210.726 526.315 209.566 522.002C209.307 521.038 209.344 519.876 209.478 518.917C209.535 518.512 209.585 517.693 209.952 517.421C210.525 517 210.659 517.563 211.168 517.393C211.896 517.15 212.748 517.514 213.302 518.076C213.855 518.638 214.178 519.366 214.511 520.067C215.674 522.52 217.1 524.864 218.753 527.051C219.538 528.089 220.611 529.048 221.288 530.143C221.866 531.078 222.211 532.086 222.873 533.006C225.704 536.937 229.157 540.448 232.884 543.596C233.617 544.512 237.207 546.024 236.13 547.097C232.885 548.14 229.303 544.907 227.069 542.765C223.462 539.699 221.392 535.196 217.983 531.964Z" fill="#D2483D"/>
<path d="M210.847 507.5C211.282 506.25 211.469 504.93 211.89 503.677C212.134 502.951 212.415 502.111 213.157 501.859C213.878 501.615 214.717 502.087 215.158 502.727C215.599 503.366 215.749 504.136 215.948 504.872C216.58 507.203 218.462 510.007 219.62 512.16C219.836 512.561 220.047 513.062 219.793 513.418C219.679 513.577 219.493 513.669 219.316 513.756C216.95 514.926 215.351 516.565 214.675 519.075C214.543 519.563 214.429 520.068 214.159 520.495C213.727 521.179 212.968 521.548 212.178 521.737C211.755 521.838 211.319 521.893 210.882 521.928C210.67 521.945 210.456 521.947 210.244 521.965C209.892 521.996 209.607 521.946 209.236 521.864C208.313 521.662 205.251 521.199 205.251 521.199C203.891 518.414 204.959 515.657 205.692 514.702C206.784 513.101 208.03 512.264 208.986 510.951C210.581 508.758 210.664 508.028 210.847 507.5Z" fill="#37474F"/>
<path d="M242.87 554.824C239.178 554.717 236.326 554.42 233.069 552.795C229.779 551.153 227.644 549.401 226.01 545.792C229.03 547.745 232.473 549.277 236.069 549.431C239.657 549.584 242.975 549.568 246.282 548.154C249.891 546.61 251.676 544.893 252.148 542.967C252.462 541.687 251.914 540.563 251.136 539.265C254.218 541.279 256.125 543.904 255.298 547.299C253.921 552.954 248.331 554.982 242.87 554.824Z" fill="#D2483D"/>
<path d="M213.323 506.693C214.688 504.445 214.012 499.921 213.832 497.432C213.652 494.944 213.468 492.475 215.18 492.436L215.393 494.884C215.393 494.884 219.181 498.485 225.785 499.609C232.389 500.733 235.944 498.884 235.944 498.884L236.5 496.978C236.5 496.978 238.144 497.194 237.151 499.971C236.158 502.748 233.046 508.743 233.072 513.132C233.097 517.521 218.347 514.256 218.347 514.256C218.347 514.256 217.269 512.036 216.398 510.905C215.526 509.773 214.488 508.276 213.323 506.693Z" fill="#E0E0E0"/>
<path d="M235.186 501.843C234.535 502.176 233.75 502.48 233.015 502.679C231.426 503.11 229.686 503.145 227.955 502.929C226.157 502.705 224.356 502.248 222.597 501.693C220.818 501.132 218.452 499.694 216.924 498.596C216.106 498.008 215.342 497.342 214.647 496.631C214.33 496.307 214.027 495.968 213.727 495.63C213.737 495.984 213.758 496.353 213.783 496.727C213.841 496.792 213.9 496.857 213.956 496.919C214.603 497.63 215.322 498.282 216.099 498.874C217.645 500.051 220.032 501.584 221.863 502.208C225.454 503.433 229.505 504.277 232.982 503.406C233.876 503.182 235.479 502.466 236.234 502.012L236.373 501.914C236.559 501.47 236.683 501.176 236.841 500.783C236.575 501.016 235.995 501.429 235.186 501.843Z" fill="#D2483D"/>
<path d="M219.012 517.167C219.851 520.167 221.128 523.041 222.735 525.71C224.827 529.185 227.482 532.325 230.55 534.982C231.802 536.067 232.821 537.095 234.648 536.892C235.221 536.828 235.76 536.599 236.29 536.373C237.439 535.883 238.59 535.398 239.737 534.902C240.676 534.497 241.451 534.141 240.974 533.05C240.001 530.822 238.544 528.774 237.5 526.566C236.643 524.755 235.902 522.897 235.208 521.027C234.369 518.768 233.728 516.163 233.657 513.779C233.614 512.34 233.74 510.757 232.812 509.594C230.656 506.894 223.945 507.7 221.241 508.719C220.124 509.14 219.024 509.778 218.507 510.823C217.996 511.856 218.142 513.097 218.347 514.256C218.521 515.233 218.744 516.204 219.012 517.167Z" fill="#263238"/>
<path d="M270.436 222.598C269.342 220.667 268.355 218.519 267.974 217.652C266.977 215.384 267.209 214.556 266.169 210.679C265.532 208.306 264.743 206.096 263.413 203.567C261.891 200.671 259.892 198.18 257.863 195.676C256.662 194.194 255.049 192.825 253.788 191.647C253.511 191.388 253.036 190.934 252.661 190.994C252.371 191.041 252.144 191.55 252.049 191.827C251.953 192.104 251.97 192.408 252.016 192.697C252.22 193.984 253.939 195.908 254.612 197.024C254.949 197.584 255.274 198.155 255.518 198.763C255.604 198.978 256.106 200.18 255.797 200.329C255.699 200.376 255.595 200.283 255.527 200.2C254.157 198.522 251.883 195.963 250.358 194.419C248.921 192.965 247.316 191.68 245.605 190.561C245.039 190.19 244.371 190.03 244.091 190.836C243.853 191.523 244.141 192.613 244.548 193.193C245.473 194.514 246.532 195.502 247.545 196.632C248.678 197.897 250.514 200.21 251.284 201.717C251.381 201.905 251.497 202.109 251.546 202.306C251.304 202.357 251.019 201.88 250.853 201.721C250.554 201.435 250.265 201.138 249.973 200.843C249.392 200.255 247.821 198.872 247.155 198.379C243.707 195.829 242.285 195.129 239.102 193.965C238.872 193.881 238.589 193.854 238.395 194.002C238.268 194.099 238.208 194.26 238.178 194.416C238.072 194.954 238.246 195.512 238.502 195.997C239.223 197.363 240.581 198.159 241.785 199.046C242.648 199.682 244.794 201.492 245.582 202.202C246.212 202.766 248.346 205.328 248.346 205.328C246.173 203.649 243.353 201.517 240.891 200.215C239.716 199.593 238.176 198.943 236.895 198.62C235.769 198.337 234.944 198.326 235.046 199.433C235.134 200.388 235.61 201.046 236.235 201.537C236.862 202.03 238.379 202.853 239.021 203.324C240.928 204.723 243.329 206.936 244.915 208.694C245.711 209.576 246.443 210.518 247.073 211.526C247.638 212.431 248.346 213.47 248.271 214.582C248.267 214.646 248.256 214.716 248.207 214.758C248.162 214.796 248.097 214.798 248.038 214.798C246.91 214.795 245.708 214.738 244.721 214.13C244.541 214.019 244.375 213.886 244.209 213.754C242.968 212.764 241.73 211.795 240.042 212.35C239.849 212.413 239.642 212.517 239.582 212.71C239.521 212.906 239.636 213.109 239.748 213.282C240.537 214.502 241.378 215.689 242.219 216.875C242.615 217.433 243.021 218.002 243.581 218.397C243.924 218.64 244.314 218.808 244.701 218.974C247.19 220.047 249.679 221.119 252.168 222.191C252.469 222.32 252.773 222.452 253.027 222.659C253.272 222.859 253.458 223.12 253.632 223.384C254.092 224.078 254.548 224.781 254.827 225.564C256.279 229.633 257.426 235.288 258.378 239.901C259.083 243.322 259.914 246.523 260.972 249.623C259.812 250.689 257.552 252.108 254.109 255.395C250.317 259.016 249.453 259.886 246.82 261.2C243.718 262.747 240.365 264.073 237.013 266.185C232.152 269.249 232.264 269.754 229.673 271.519C228.659 277.545 235.782 292.606 247.997 295.605C251.201 286.159 269.396 275.036 275.47 268.401C282.433 260.795 287.444 258.036 285.548 252.322C281.676 240.651 279.81 238.308 277.101 233.657C273.894 228.151 272.57 226.363 270.436 222.598Z" fill="#C8856A"/>
<path d="M268.313 260.139C264.442 258.001 262.358 255.019 260.972 249.622C260.492 250.063 259.813 250.574 258.952 251.242C259.519 255.008 263.189 259.421 268.313 260.139Z" fill="#AF6152"/>
<path d="M251.201 213.304C255.564 212.599 260.247 215.646 262.285 218.417C261.439 213.2 255.764 211.158 251.201 213.304Z" fill="#AF6152"/>
<path d="M224.677 272.274C224.677 272.274 206.852 273.116 202.346 274.27C195.608 275.994 192.959 272.023 192.959 272.023C191.006 274.707 183.321 295.234 183.172 305.198C183.172 305.198 188.557 319.255 189.044 330.325C189.629 343.643 188.746 361.249 188.746 361.249C204.277 374.857 247.541 370.095 255.307 349.79C251.933 336.71 251.104 316.728 248.713 297.317C246.301 277.735 231.16 270.345 231.16 270.345C229.083 271.423 228.1 272.023 224.677 272.274Z" fill="#D2483D"/>
<path d="M254.281 345.203C254.17 344.636 254.062 344.057 253.956 343.472C248.048 351.196 239.19 356.782 228.371 359.415C217.255 362.117 205.307 361.421 195.719 357.801C196.946 343.337 195.257 322.691 191.718 313.097C195.464 311.523 198.466 309.066 200.446 305.827C204.308 299.508 204.062 290.676 199.898 280.422C202.854 284.457 206.679 288.925 211.773 290.782C213.934 291.57 216.364 291.963 218.8 291.963C224.983 291.963 231.206 289.435 233.173 284.435C234.588 280.837 233.056 276.616 228.5 271.591C228.071 271.74 227.599 271.866 227.059 271.972C231.603 276.81 233.208 280.745 231.945 283.955C229.469 290.251 219.311 292.13 212.226 289.547C206.382 287.417 202.357 281.675 199.122 277.062C198.481 276.148 197.877 275.304 197.296 274.53C196.915 274.457 196.563 274.362 196.236 274.253L196.189 274.236C195.87 274.127 195.576 274.007 195.308 273.877C202.361 286.747 203.804 297.809 199.321 305.142C196.63 309.542 191.891 312.391 185.863 313.395C185.982 313.807 186.102 314.228 186.221 314.66L186.223 314.665C187.72 314.406 189.15 314.046 190.489 313.572C193.938 322.927 195.601 343.103 194.442 357.292C192.57 356.516 190.794 355.629 189.146 354.628C189.121 355.139 189.097 355.631 189.072 356.094C190.719 357.042 192.472 357.891 194.315 358.635C194.125 360.654 193.881 362.61 193.585 364.479C193.985 364.686 194.403 364.877 194.821 365.069L194.825 365.071C195.133 363.181 195.385 361.195 195.585 359.148C201.318 361.259 207.834 362.372 214.517 362.372C219.235 362.372 224.033 361.823 228.683 360.691C239.365 358.093 248.202 352.685 254.281 345.203Z" fill="white"/>
<path opacity="0.1" d="M234.118 366.169C226.405 364.819 218.781 361.617 213.944 355.533C211.635 352.629 210.016 348.841 210.886 345.237C211.773 341.561 214.78 335.534 218.199 333.904C219.628 333.222 221.148 332.647 222.322 331.586C223.496 330.524 224.251 328.8 223.647 327.338C222.992 325.75 221.123 325.13 219.511 324.53C212.596 321.956 206.855 316.398 204.069 309.577C201.841 304.124 201.48 298.121 200.22 292.368C198.959 286.615 196.461 280.671 191.428 277.597L190.103 278.258C187.152 285.823 183.277 298.15 183.173 305.198C183.173 305.198 188.557 319.255 189.044 330.325C189.629 343.643 188.746 361.249 188.746 361.249C198.29 369.612 218.302 371.026 234.118 366.169Z" fill="black"/>
<path d="M192.225 257.605C196.108 262.388 201.007 266.503 203.93 272.023C203.687 271.753 205.771 268.782 206.011 268.435C206.768 267.34 207.638 266 208.709 265.187C209.478 264.604 210.476 264.36 211.301 263.839C212.635 262.997 213.969 262.133 215.215 261.165C218.017 258.99 220.366 256.168 221.962 253C223.733 249.486 225.448 246.41 225.792 242.398C225.884 241.325 225.994 240.247 226.16 239.181C226.416 237.543 226.736 236.21 225.744 234.703C227.363 233.733 228.585 232.007 228.657 230.123C228.691 229.2 228.326 228.206 227.855 227.426C227.151 226.259 226.574 226.422 225.558 225.798C226.802 224.962 227.284 223.168 226.628 221.822C225.971 220.477 224.259 219.75 222.833 220.211C222.845 218.812 222.81 217.394 222.425 216.048C222.041 214.703 221.27 213.421 220.084 212.675C219.277 214.424 217.549 215.604 215.73 216.246C213.91 216.888 211.966 217.071 210.058 217.362C207.107 217.813 204.204 218.531 201.285 219.158C198.87 219.676 196.429 220.135 194.12 221.009C191.81 221.883 189.61 223.21 188.111 225.169C186.612 227.128 185.904 229.784 186.656 232.131C182.662 233.98 181.85 239.338 183.002 243.199C184.029 246.642 186.376 249.55 188.376 252.459C189.59 254.224 190.874 255.942 192.225 257.605Z" fill="#263238"/>
<path d="M201.59 270.378C200.822 266.341 198.782 260.778 198.782 260.778C198.348 262.036 195.077 264.211 190.697 261.603C186.81 259.289 186.062 254.295 187.614 251.39C189.387 248.07 193.169 247.553 196.323 250.893C197.853 250.789 198.696 249.759 198.611 248.251C198.551 247.193 198.121 246.153 197.664 245.212C197.219 244.297 196.295 243.22 196.904 242.149C197.128 241.757 197.494 241.47 197.839 241.178C200.52 238.906 202.426 235.35 201.686 231.918C201.644 231.725 201.595 231.521 201.658 231.334C201.719 231.153 201.874 231.021 202.024 230.902C206.917 227.015 213.538 226.021 219.788 226.248C222.131 226.333 223.778 228.752 224.824 230.57C226.203 232.967 226.718 235.688 227.761 238.232C228.471 239.963 229.642 242.521 230.463 245.274C233.246 254.606 233.369 259.115 230.165 262.479C228.567 264.157 225.725 265.919 221.741 267.02C221.741 267.02 221.73 267.272 222.289 270.017C222.578 271.433 223.121 272.152 224.677 272.274C230.216 278.549 232.117 284.732 222.204 286.944C209.709 289.733 205.055 276.98 198.574 274.749C201.691 274.391 201.966 272.359 201.59 270.378Z" fill="#C8856A"/>
<path d="M221.742 267.02C213.452 268.83 207.535 268.29 201.795 260.476C201.795 260.476 202.911 264.941 208.241 268.418C213.768 272.023 222.204 269.466 222.204 269.466L221.742 267.02Z" fill="#AF6152"/>
<path d="M207.835 244.37C207.922 245.402 208.832 246.169 209.868 246.082C210.903 245.994 211.671 245.086 211.583 244.053C211.496 243.02 210.585 242.253 209.55 242.341C208.515 242.428 207.747 243.337 207.835 244.37Z" fill="#263238"/>
<path d="M220.873 240.97C220.961 242.003 221.871 242.769 222.906 242.682C223.941 242.595 224.709 241.686 224.622 240.653C224.534 239.62 223.624 238.854 222.589 238.941C221.554 239.029 220.786 239.937 220.873 240.97Z" fill="#263238"/>
<path d="M214.48 239.832L218.69 251.262L224.591 247.273L214.48 239.832Z" fill="#AF6152"/>
<path d="M223.173 234.416L219.11 238.121C218.045 237.034 218.093 235.322 219.215 234.298C220.337 233.275 222.11 233.328 223.173 234.416Z" fill="#263238"/>
<path d="M205.065 240.812L210.601 240.174C210.473 238.639 209.13 237.537 207.601 237.713C206.073 237.89 204.937 239.277 205.065 240.812Z" fill="#263238"/>
<path d="M220.984 255.098L214.759 254.267C214.455 255.976 215.603 257.548 217.322 257.777C219.04 258.006 220.681 256.807 220.984 255.098Z" fill="#AF6152"/>
<path d="M218.673 257.659C218.244 257.789 217.787 257.839 217.322 257.777C216.123 257.617 215.216 256.799 214.872 255.743C216.452 255.492 217.974 256.289 218.673 257.659Z" fill="#F28F8F"/>
<path d="M192.959 272.023C192.959 272.023 190.011 267.718 184.143 264.147C182.316 263.035 179.82 257.592 176.455 253.006C173.518 249.004 172.403 247.745 170.205 244.897C170.102 238.121 167.917 215.16 167.358 209.949C167.136 207.874 167.315 206.236 167.699 205.247C168.058 204.323 168.665 203.513 169.288 202.75C170.685 201.043 172.082 199.336 173.479 197.628C173.745 197.303 174.013 196.974 174.207 196.601C174.521 195.993 174.619 195.301 174.712 194.624C174.911 193.185 175.11 191.745 175.247 190.298C175.267 190.094 175.275 189.861 175.13 189.715C174.988 189.571 174.756 189.574 174.556 189.606C172.802 189.89 172.15 191.319 171.505 192.769C171.42 192.962 171.333 193.156 171.225 193.337C170.629 194.331 169.588 194.934 168.589 195.455C168.536 195.482 168.478 195.511 168.42 195.497C168.357 195.483 168.316 195.426 168.282 195.371C167.702 194.419 167.851 193.171 167.935 192.107C168.029 190.923 168.243 189.751 168.543 188.602C169.14 186.312 170.249 183.244 171.296 181.127C171.649 180.413 172.616 178.985 172.944 178.26C173.273 177.536 173.391 176.734 173.028 175.845C172.608 174.815 171.88 175.205 171.012 175.974C170.023 176.849 168.957 178.134 168.201 179.226C166.617 181.514 165.098 184.702 163.944 187.191C163.944 187.191 164.656 183.936 164.954 183.146C165.327 182.154 166.396 179.561 166.868 178.6C167.528 177.259 168.365 175.928 168.375 174.385C168.378 173.836 168.275 173.261 167.933 172.832C167.834 172.707 167.706 172.592 167.549 172.564C167.308 172.522 167.07 172.676 166.904 172.857C164.617 175.352 163.677 176.627 161.794 180.476C161.43 181.22 160.674 183.17 160.43 183.959C160.307 184.354 160.187 184.751 160.054 185.143C159.98 185.36 159.947 185.914 159.709 185.98C159.661 185.783 159.671 185.549 159.67 185.337C159.658 183.645 160.219 180.748 160.642 179.105C161.019 177.637 161.503 176.272 161.715 174.674C161.807 173.973 161.561 172.873 161.032 172.373C160.411 171.786 159.892 172.235 159.561 172.824C158.559 174.604 157.727 176.482 157.123 178.434C156.482 180.505 155.645 183.821 155.204 185.941C155.181 186.046 155.132 186.176 155.024 186.18C154.681 186.189 154.57 184.892 154.548 184.661C154.484 184.01 154.509 183.353 154.55 182.701C154.632 181.401 155.27 178.903 154.857 177.667C154.764 177.389 154.639 177.113 154.426 176.91C154.213 176.708 153.777 176.361 153.498 176.453C153.138 176.572 152.926 177.193 152.799 177.55C152.224 179.175 151.424 181.132 151.041 183C150.397 186.155 149.772 189.285 149.757 192.554C149.745 195.41 150.064 197.735 150.595 200.134C151.461 204.053 151.713 204.978 151.875 207.449C151.937 208.395 151.754 211.65 151.299 215.439C150.431 222.652 149.266 232.965 148.378 242.689C147.607 251.142 148.231 251.908 152.828 259.674C168.655 286.412 177.922 294.45 184.576 309.219C198.485 308.261 203.458 289.58 192.959 272.023Z" fill="#C8856A"/>
<path d="M195.464 298.474C192.684 294.107 188.701 290.755 183.992 288.612C183.523 288.398 183.598 289.153 183.881 289.333C188.002 291.946 191.466 295.838 193.94 300.017C194.479 300.927 194.967 301.866 195.408 302.827C195.871 302.117 196.29 301.361 196.656 300.559C196.284 299.849 195.894 299.149 195.464 298.474Z" fill="#AF6152"/>
<path d="M165.092 195.583C160.894 196.963 158.144 201.821 157.613 205.217C155.956 200.197 160.051 195.776 165.092 195.583Z" fill="#AF6152"/>
<path d="M209.155 160.971L209.129 160.925C209.062 160.821 208.994 160.715 208.926 160.608C208.89 159.917 208.822 159.018 208.822 159.018L208.996 158.843L209.001 158.84C208.369 153.308 205.994 148.305 202.437 144.39L201.952 144.297C201.824 144.165 201.695 144.034 201.566 143.905C201.436 143.774 201.305 143.647 201.173 143.519L201.186 143.106L201.184 143.103H201.181C197.493 139.562 192.763 137.103 187.496 136.223C187.506 136.364 187.517 136.516 187.517 136.652C187.177 136.594 186.818 136.544 186.474 136.501C186.471 136.364 186.463 136.21 186.448 136.071C185.375 135.936 184.281 135.867 183.173 135.867C178.554 135.867 174.218 137.068 170.459 139.175L170.462 139.6L170.459 139.602C170.151 139.775 169.848 139.955 169.549 140.139H169.547C169.342 140.126 169.129 140.115 168.928 140.105C165.364 142.439 162.411 145.621 160.356 149.365L160.361 149.362L160.425 149.749L159.897 150.8L159.815 150.848C159.729 150.899 159.64 150.951 159.555 151.005L159.516 151.029C158.014 154.313 157.175 157.962 157.175 161.81C157.175 168.468 159.691 174.543 163.823 179.137L164.147 179.092L164.149 179.095C164.193 179.142 164.621 179.623 164.842 179.817V179.843C164.837 179.961 164.833 180.077 164.832 180.195L164.84 180.205C169.139 184.472 174.925 187.247 181.353 187.69L181.366 187.427L181.368 187.386L182.414 187.437H182.416L182.406 187.742C182.66 187.751 182.915 187.754 183.173 187.754C189.576 187.754 195.439 185.443 199.971 181.612L199.972 181.61C199.992 181.479 200.013 181.347 200.031 181.216C200.518 180.757 200.95 180.381 200.984 180.352L200.986 180.35L201.192 180.51C206.11 175.79 209.17 169.156 209.17 161.81C209.17 161.528 209.165 161.249 209.155 160.971Z" fill="#D2483D"/>
<path d="M208.822 159.018C208.822 159.018 208.89 159.917 208.926 160.608C207.362 158.176 205.372 155.697 203.012 153.96C202.935 153.901 202.856 153.845 202.778 153.79C202.458 153.563 202.131 153.35 201.798 153.154C201.702 153.097 201.605 153.041 201.507 152.987C201.04 152.727 200.56 152.499 200.069 152.306C197.645 151.359 195.135 151.408 192.601 152.427C199.599 161.125 202.445 170.411 201.192 180.51L200.986 180.35L200.984 180.352C200.95 180.381 200.518 180.757 200.031 181.216C200.19 180.121 200.3 179.035 200.36 177.959L200.362 177.946C200.374 177.753 200.383 177.56 200.39 177.369C200.391 177.341 200.393 177.315 200.393 177.287C200.4 177.112 200.405 176.937 200.408 176.763C200.41 176.72 200.411 176.678 200.411 176.634C200.441 175.04 200.36 173.466 200.172 171.913C199.843 169.228 199.184 166.586 198.217 164.059C198.125 163.82 198.034 163.577 197.933 163.339C196.666 160.219 194.941 157.284 192.933 154.576C192.509 154.006 192.069 153.437 191.608 152.871C183.268 157.095 182.93 169.298 182.58 182.215C182.534 183.936 182.483 185.686 182.414 187.437L181.368 187.386C181.435 185.646 181.486 183.902 181.53 182.187C181.887 169.05 182.231 156.632 190.922 152.046C190.218 151.214 189.476 150.387 188.693 149.565C187.858 148.689 187.026 147.896 186.199 147.171C177.016 151.696 165.344 164.449 164.842 179.817C164.621 179.623 164.193 179.142 164.149 179.095L164.147 179.092L163.823 179.137C164.639 163.853 176.098 151.186 185.333 146.435C184.111 145.432 182.902 144.58 181.707 143.859C177.807 146.007 173.623 146.896 169.573 147.752C168.674 147.942 167.783 148.131 166.912 148.333C166.694 148.382 166.476 148.434 166.262 148.486C164.711 148.86 163.162 149.295 161.692 149.915C161.065 150.176 160.466 150.47 159.897 150.8L160.425 149.75L160.361 149.362C162.999 148.074 166.121 147.412 169.355 146.729C173.132 145.93 177.026 145.103 180.636 143.245C178.572 142.125 176.553 141.383 174.593 140.898C174.362 140.841 174.132 140.787 173.903 140.738C173.81 140.718 173.716 140.698 173.625 140.679C172.233 140.39 170.873 140.224 169.549 140.139C169.848 139.955 170.151 139.775 170.459 139.602L170.462 139.6L170.459 139.175C173.96 139.502 177.76 140.424 181.697 142.665C185.212 140.612 186.391 138.667 186.471 136.822C186.473 136.781 186.474 136.742 186.474 136.702C186.476 136.635 186.476 136.568 186.474 136.501C186.818 136.544 187.177 136.595 187.517 136.652C187.519 136.733 187.516 136.797 187.514 136.874C187.508 137.106 187.485 137.34 187.449 137.569C187.442 137.616 187.434 137.662 187.426 137.707C187.409 137.799 187.39 137.891 187.368 137.98C187.336 138.116 187.298 138.252 187.255 138.384C187.213 138.518 187.165 138.649 187.113 138.78C187.079 138.865 187.041 138.95 187.002 139.035C186.643 139.813 186.132 140.488 185.539 141.092C185.421 141.213 185.298 141.331 185.174 141.447C184.925 141.677 184.664 141.898 184.396 142.109C183.896 142.501 183.338 142.887 182.716 143.271C183.919 144.021 185.135 144.904 186.358 145.932C192.779 142.929 197.285 142.542 201.181 143.103H201.186V143.106L201.173 143.519C201.305 143.647 201.436 143.774 201.566 143.905C201.695 144.034 201.824 144.165 201.952 144.297L201.934 144.294C201.648 144.242 201.359 144.194 201.066 144.152C197.625 143.627 194.073 144.137 190.778 145.268C189.665 145.644 188.484 146.11 187.224 146.683C187.965 147.349 188.708 148.063 189.453 148.843C190.316 149.748 191.127 150.658 191.897 151.577C194.791 150.328 197.666 150.243 200.452 151.332C203.926 152.688 206.8 155.715 208.996 158.843L208.822 159.018Z" fill="#263238"/>
<path d="M208.926 160.608C207.362 158.176 205.372 155.697 203.012 153.96C202.935 153.901 202.856 153.845 202.778 153.79C202.458 153.563 202.131 153.35 201.798 153.154C201.702 153.097 201.605 153.041 201.507 152.987C201.04 152.727 200.56 152.499 200.069 152.306C197.645 151.359 195.135 151.408 192.601 152.427V152.845C196.13 157.232 198.315 161.463 199.686 165.935C200.575 168.836 201.728 173.733 200.986 180.35L200.984 180.352C200.95 180.381 200.518 180.757 200.031 181.216C200.179 180.129 200.297 179.038 200.36 177.959L200.362 177.946C200.374 177.753 200.383 177.56 200.39 177.369C200.391 177.341 200.393 177.315 200.393 177.287C200.4 177.112 200.405 176.937 200.408 176.763C200.41 176.72 200.411 176.678 200.411 176.634C200.414 176.462 200.414 176.29 200.413 176.119C200.419 174.702 200.337 173.299 200.172 171.913C199.844 169.228 199.183 166.586 198.217 164.059C198.126 163.82 198.034 163.577 197.933 163.339C196.666 160.219 194.942 157.284 192.933 154.576C192.509 154.006 192.069 153.437 191.608 152.871C183.268 157.095 182.93 169.298 182.58 182.215C182.534 183.936 182.483 185.686 182.414 187.437L181.368 187.386C181.43 185.784 181.489 184.183 181.53 182.606C181.887 169.47 182.231 157.05 190.922 152.464V152.046C190.218 151.214 189.476 150.387 188.693 149.565C187.858 148.689 187.026 147.896 186.199 147.171C177.016 151.696 165.344 164.449 164.842 179.817C164.621 179.623 164.193 179.142 164.149 179.095C164.26 174.648 166.296 167.208 170.624 160.564C174.689 154.324 180.965 149.101 185.333 146.853V146.435C184.111 145.432 182.902 144.58 181.707 143.859C177.807 146.007 173.623 146.896 169.573 147.752C168.674 147.942 167.783 148.131 166.912 148.333C166.694 148.382 166.476 148.434 166.262 148.486C164.711 148.86 163.163 149.297 161.692 149.915C161.065 150.179 160.464 150.475 159.894 150.807L159.812 150.854L159.816 150.848L159.897 150.8L160.425 149.75C163.05 148.483 166.147 147.828 169.355 147.148C173.132 146.348 177.026 145.521 180.636 143.663V143.245C178.572 142.125 176.553 141.383 174.593 140.898C174.362 140.841 174.132 140.787 173.903 140.738C173.81 140.718 173.716 140.698 173.625 140.679C172.233 140.391 170.872 140.228 169.547 140.141L169.549 140.139C169.848 139.955 170.151 139.775 170.459 139.602L170.462 139.6C173.964 139.927 177.76 140.842 181.697 143.083C185.479 140.875 186.554 138.791 186.471 136.822C186.473 136.781 186.474 136.742 186.474 136.702C186.476 136.635 186.476 136.568 186.474 136.501C186.818 136.544 187.177 136.595 187.517 136.652C187.519 136.733 187.516 136.797 187.514 136.874C187.508 137.106 187.485 137.34 187.449 137.569C187.442 137.616 187.434 137.662 187.426 137.707C187.409 137.799 187.39 137.891 187.368 137.98C187.336 138.116 187.298 138.252 187.255 138.384C187.214 138.518 187.167 138.649 187.113 138.78C187.079 138.865 187.041 138.95 187.002 139.035C186.643 139.813 186.132 140.488 185.539 141.092C185.421 141.213 185.298 141.331 185.174 141.447C184.925 141.677 184.665 141.898 184.396 142.109C183.896 142.501 183.338 142.887 182.716 143.271V143.689C183.919 144.441 185.135 145.322 186.358 146.35C192.783 143.346 197.275 142.96 201.173 143.519C201.305 143.647 201.436 143.774 201.566 143.905C201.695 144.034 201.824 144.165 201.952 144.297L201.934 144.294C201.648 144.242 201.359 144.194 201.066 144.152C197.625 143.627 194.073 144.137 190.778 145.268C189.665 145.644 188.484 146.11 187.224 146.683V147.103C187.965 147.767 188.708 148.481 189.453 149.263C190.316 150.166 191.127 151.078 191.897 151.995C194.791 150.747 197.666 150.662 200.452 151.75C203.836 153.071 206.649 155.977 208.822 159.018C208.822 159.018 208.89 159.917 208.926 160.608Z" fill="#37474F"/>
<path opacity="0.15" d="M176.182 176.072C161.573 166.609 162.904 146.062 175.043 137.162C173.441 137.688 171.907 138.364 170.459 139.175L170.462 139.6L170.459 139.602C170.151 139.775 169.848 139.955 169.549 140.139H169.547C169.342 140.126 169.129 140.115 168.928 140.105C165.364 142.439 162.411 145.621 160.356 149.365L160.361 149.362L160.425 149.75L159.897 150.8L159.816 150.848C159.729 150.899 159.64 150.951 159.555 151.005L159.516 151.029C158.014 154.313 157.176 157.962 157.176 161.81C157.176 168.468 159.691 174.543 163.823 179.137L164.147 179.092L164.149 179.095C164.193 179.142 164.621 179.623 164.842 179.817V179.843C164.837 179.961 164.834 180.077 164.832 180.195L164.84 180.205C169.139 184.472 174.925 187.247 181.353 187.69L181.366 187.427L181.368 187.386L182.414 187.437H182.416L182.406 187.742C182.66 187.751 182.915 187.754 183.173 187.754C189.576 187.754 195.439 185.443 199.971 181.612L199.972 181.61C199.992 181.479 200.013 181.347 200.031 181.216C200.518 180.757 200.95 180.381 200.984 180.352L200.986 180.35L201.192 180.51C203.983 177.832 206.174 174.536 207.549 170.845C202.936 178.329 189.226 184.521 176.182 176.072Z" fill="black"/>
<path opacity="0.1" d="M205.563 154.949C205.44 151.619 203.424 148.177 201.226 145.776C197.19 141.367 190.69 137.417 184.487 139.266C182.26 139.93 180.95 141.914 182.36 144.128C183.239 145.507 184.79 146.286 186.283 146.957C189.566 148.431 192.949 149.714 196.084 151.495C197.694 152.41 199.207 153.46 200.589 154.693C201.39 155.409 203.231 156.978 204.353 156.946C205.223 156.922 205.595 155.817 205.563 154.949ZM206.334 159.899C205.847 158.815 204.604 157.575 203.441 158.514C202.617 159.18 202.311 160.265 202.431 161.311C202.548 162.332 203.071 163.317 203.914 163.838C206.542 165.465 207.085 161.565 206.334 159.899Z" fill="white"/>
</svg>
