<svg width="625" height="598" viewBox="0 0 625 598" fill="none" xmlns="http://www.w3.org/2000/svg">
<path d="M111.052 72.2788H55.9711V86.8504H111.052V72.2788Z" fill="#F5F5F5"/>
<path d="M577.758 0H522.677V14.5716H577.758V0Z" fill="#F5F5F5"/>
<path d="M305.28 144.094C305.275 144.088 305.269 143.999 305.264 143.829L305.245 143.082C305.236 142.396 305.222 141.44 305.204 140.214C305.182 137.699 305.15 134.082 305.11 129.522L305.28 129.693C292.704 129.718 272.702 129.758 250.202 129.803C250.326 129.678 249.919 130.083 250.48 129.523V129.988L250.48 130.456V131.39C250.479 132.012 250.479 132.632 250.479 133.249C250.479 134.484 250.479 135.71 250.478 136.926C250.477 139.359 250.475 141.751 250.473 144.094L250.199 143.82C265.884 143.869 279.608 143.913 289.452 143.944C294.355 143.977 298.29 144.004 301.038 144.022C302.375 144.038 303.421 144.05 304.171 144.058C304.508 144.066 304.778 144.072 304.99 144.076C305.177 144.082 305.275 144.088 305.28 144.094C305.286 144.1 305.2 144.106 305.025 144.112L304.24 144.129C303.505 144.138 302.477 144.15 301.166 144.165C298.433 144.184 294.52 144.211 289.643 144.244C279.752 144.275 265.96 144.319 250.199 144.368L249.925 144.369L249.924 144.094C249.923 141.751 249.921 139.359 249.92 136.926C249.92 135.71 249.919 134.484 249.919 133.249C249.919 132.632 249.918 132.012 249.918 131.39L249.918 130.456V129.523C250.48 128.961 250.076 129.367 250.202 129.242C272.702 129.287 292.704 129.326 305.28 129.352L305.453 129.352L305.451 129.522C305.411 134.125 305.379 137.776 305.357 140.316C305.339 141.525 305.325 142.468 305.315 143.145C305.308 143.439 305.302 143.675 305.297 143.862C305.292 144.022 305.286 144.1 305.28 144.094Z" fill="#E0E0E0"/>
<path d="M569.059 120.577C569.053 120.571 569.048 120.482 569.042 120.312C569.037 120.117 569.031 119.872 569.024 119.565C569.014 118.879 569 117.923 568.983 116.697C568.96 114.182 568.928 110.565 568.888 106.006L569.059 106.176C556.482 106.201 536.481 106.241 513.981 106.286C514.105 106.161 513.698 106.566 514.258 106.006V106.471L514.258 106.939V107.874L514.258 109.732C514.257 110.968 514.257 112.194 514.256 113.41C514.255 115.842 514.253 118.234 514.252 120.577L513.978 120.303C529.662 120.352 543.387 120.396 553.23 120.427C558.133 120.46 562.068 120.487 564.816 120.506C566.153 120.521 567.2 120.533 567.949 120.542L568.769 120.559C568.955 120.565 569.053 120.571 569.059 120.577C569.065 120.583 568.978 120.589 568.804 120.595C568.6 120.599 568.342 120.605 568.018 120.613C567.283 120.621 566.256 120.633 564.944 120.649C562.211 120.667 558.298 120.694 553.422 120.727C543.53 120.758 529.739 120.802 513.978 120.852L513.703 120.852L513.703 120.577C513.701 118.234 513.7 115.842 513.698 113.41C513.698 112.194 513.697 110.968 513.697 109.732L513.697 107.874L513.697 106.939V106.006C514.258 105.444 513.854 105.85 513.981 105.725C536.481 105.77 556.482 105.81 569.059 105.835L569.231 105.835L569.23 106.006C569.189 110.608 569.157 114.259 569.135 116.799C569.118 118.008 569.104 118.952 569.094 119.628C569.087 119.923 569.081 120.158 569.076 120.346C569.07 120.505 569.065 120.583 569.059 120.577Z" fill="#E0E0E0"/>
<path d="M243.169 9.63086H188.087V24.2025H243.169V9.63086Z" fill="#EBEBEB"/>
<path d="M219.878 39.5509C219.872 39.545 219.866 39.4558 219.861 39.286C219.856 39.0909 219.85 38.8452 219.843 38.5387C219.833 37.8528 219.819 36.8966 219.801 35.6708C219.779 33.1554 219.747 29.5389 219.707 24.9791L219.878 25.1498C207.301 25.1749 187.3 25.2148 164.8 25.2596C164.924 25.1346 164.516 25.5396 165.077 24.9794V25.4447L165.077 25.9128V26.8472C165.077 27.4689 165.077 28.0886 165.077 28.7061C165.076 29.9411 165.076 31.1671 165.075 32.3834C165.074 34.8155 165.072 37.2076 165.071 39.5507L164.796 39.2763C180.481 39.3261 194.205 39.3696 204.049 39.401C208.952 39.4341 212.887 39.4607 215.635 39.4792C216.972 39.4946 218.019 39.5067 218.768 39.5152C219.105 39.5226 219.375 39.5285 219.588 39.533C219.774 39.539 219.872 39.5448 219.878 39.5509C219.884 39.5567 219.797 39.5625 219.623 39.5685L218.837 39.5861C218.102 39.5948 217.075 39.6069 215.763 39.6223C213.03 39.6408 209.117 39.6675 204.24 39.7004C194.349 39.7316 180.558 39.7754 164.796 39.8253L164.522 39.8261L164.522 39.5507C164.52 37.2076 164.519 34.8155 164.517 32.3834C164.517 31.1671 164.516 29.9411 164.516 28.7061L164.516 26.8472V24.9794C165.077 24.4178 164.673 24.8238 164.8 24.6985C187.3 24.7433 207.301 24.7833 219.878 24.8085L220.05 24.8087L220.049 24.9791C220.008 29.5821 219.976 33.2329 219.954 35.7724C219.936 36.9818 219.923 37.9253 219.913 38.6019C219.906 38.8961 219.9 39.1321 219.895 39.3192C219.889 39.4784 219.883 39.5564 219.878 39.5509Z" fill="#E0E0E0"/>
<path d="M477.651 47.0251H422.57V61.5968H477.651V47.0251Z" fill="#F5F5F5"/>
<path d="M454.36 76.9453C454.355 76.9396 454.349 76.8503 454.343 76.6806L454.325 75.9331C454.315 75.2474 454.302 74.2911 454.284 73.0654C454.262 70.5498 454.23 66.9333 454.189 62.3736L454.36 62.5442C441.783 62.5693 421.782 62.6093 399.282 62.654C399.406 62.5291 398.999 62.9342 399.56 62.3739V62.8391L399.559 63.3074V64.2417C399.559 64.8634 399.559 65.483 399.559 66.1006C399.559 67.3356 399.558 68.5617 399.558 69.7778C399.556 72.2099 399.555 74.6021 399.553 76.9452L399.279 76.6707C414.964 76.7205 428.688 76.7641 438.532 76.7955C443.435 76.8285 447.369 76.8552 450.118 76.8738C451.454 76.8892 452.501 76.9011 453.251 76.9098C453.588 76.917 453.858 76.923 454.07 76.9275C454.256 76.9335 454.354 76.9392 454.36 76.9453C454.366 76.9512 454.28 76.9571 454.105 76.963C453.902 76.9676 453.643 76.9733 453.319 76.9807C452.584 76.9893 451.557 77.0014 450.246 77.0168C447.512 77.0353 443.599 77.0619 438.723 77.0949C428.831 77.1262 415.04 77.17 399.279 77.2197L399.005 77.2205L399.004 76.9452C399.003 74.6021 399.001 72.2099 399 69.7778C398.999 68.5617 398.999 67.3356 398.998 66.1006C398.998 65.483 398.998 64.8634 398.998 64.2417L398.998 63.3074V62.3739C399.56 61.8123 399.156 62.2183 399.282 62.0929C421.782 62.1378 441.784 62.1777 454.36 62.2029L454.532 62.2033L454.531 62.3736C454.491 66.9766 454.459 70.6274 454.437 73.1669C454.419 74.3764 454.405 75.3198 454.395 75.9963C454.388 76.2907 454.382 76.5266 454.377 76.7137C454.372 76.873 454.366 76.951 454.36 76.9453Z" fill="#E0E0E0"/>
<path d="M616.998 253.818H3.30969V391.549H616.998V253.818Z" fill="#F5F5F5"/>
<path d="M317.129 259.329L274.757 391.549L392.802 391.235L429.028 259.329H317.129Z" fill="#EBEBEB"/>
<path d="M452.917 259.329L409.99 391.549H528.028L564.816 259.329H452.917Z" fill="#EBEBEB"/>
<path d="M73.6907 159.031H124.318C134.217 159.031 142.254 167.068 142.254 176.968V256.581H55.7539V176.968C55.7539 167.068 63.7911 159.031 73.6907 159.031Z" fill="#FAFAFA"/>
<path d="M187.979 159.031H238.606C248.506 159.031 256.543 167.068 256.543 176.968V256.581H170.042V176.968C170.042 167.068 178.08 159.031 187.979 159.031Z" fill="#FAFAFA"/>
<path d="M304.542 159.031H355.169C365.068 159.031 373.105 167.068 373.105 176.968V256.581H286.605V176.968C286.605 167.068 294.642 159.031 304.542 159.031Z" fill="#FAFAFA"/>
<path d="M421.104 159.031H471.731C481.631 159.031 489.668 167.068 489.668 176.968V256.581H403.168V176.968C403.168 167.068 411.205 159.031 421.104 159.031Z" fill="#FAFAFA"/>
<path d="M537.667 159.031H588.294C598.194 159.031 606.231 167.068 606.231 176.968V256.581H519.73V176.968C519.73 167.068 527.768 159.031 537.667 159.031Z" fill="#FAFAFA"/>
<path d="M23.6481 197.713H74.2749C84.1745 197.713 92.2117 205.75 92.2117 215.649V256.581H5.7113V215.649C5.7113 205.75 13.7485 197.713 23.6481 197.713Z" fill="#F5F5F5"/>
<path d="M131.413 197.713H182.04C191.94 197.713 199.977 205.75 199.977 215.649V256.581H113.476V215.65C113.476 205.75 121.514 197.713 131.413 197.713Z" fill="#F5F5F5"/>
<path d="M244.717 197.713H295.343C305.243 197.713 313.28 205.75 313.28 215.649V256.581H226.78V215.65C226.78 205.75 234.817 197.713 244.717 197.713Z" fill="#F5F5F5"/>
<path d="M358.02 197.713H408.647C418.546 197.713 426.584 205.75 426.584 215.649V256.581H340.083V215.65C340.083 205.75 348.12 197.713 358.02 197.713Z" fill="#F5F5F5"/>
<path d="M471.323 197.713H521.95C531.85 197.713 539.887 205.75 539.887 215.65V256.581H453.386V215.65C453.386 205.75 461.423 197.713 471.323 197.713Z" fill="#F5F5F5"/>
<path d="M618.832 245.285H0V259.329H618.832V245.285Z" fill="#E0E0E0"/>
<path d="M259.737 281.536H22.9199V367.591H259.737V281.536Z" fill="#E0E0E0"/>
<path d="M616.998 421.203H11.0785V430.473H616.998V421.203Z" fill="#EBEBEB"/>
<path d="M328.152 428.52L255.565 598H273.152L344.991 428.52H328.152Z" fill="#EBEBEB"/>
<path d="M189.817 493.098C189.866 493.278 156.607 502.471 115.541 513.628C74.46 524.789 41.129 533.688 41.0801 533.508C41.0313 533.328 74.2831 524.137 115.364 512.977C156.43 501.819 189.768 492.919 189.817 493.098Z" fill="#EBEBEB"/>
<path d="M503.417 534.944C503.465 535.123 470.206 544.316 429.14 555.473C388.06 566.634 354.729 575.533 354.68 575.353C354.631 575.173 387.883 565.983 428.963 554.822C470.03 543.665 503.368 534.764 503.417 534.944Z" fill="#EBEBEB"/>
<path d="M144.193 528.639C144.246 528.817 127.483 533.942 106.756 540.083C86.0219 546.227 69.1762 551.061 69.1232 550.882C69.0704 550.704 85.8302 545.58 106.564 539.436C127.291 533.295 144.14 528.46 144.193 528.639Z" fill="#EBEBEB"/>
<path d="M542.855 497.76C542.908 497.938 526.145 503.063 505.418 509.204C484.684 515.348 467.838 520.182 467.785 520.003C467.732 519.824 484.492 514.701 505.226 508.558C525.953 502.416 542.802 497.581 542.855 497.76Z" fill="#EBEBEB"/>
<path d="M624.19 391.549C624.19 391.735 485.839 391.886 315.215 391.886C144.53 391.886 6.20874 391.735 6.20874 391.549C6.20874 391.363 144.53 391.211 315.215 391.211C485.839 391.211 624.19 391.363 624.19 391.549Z" fill="#263238"/>
<path d="M189.79 365.656C189.79 365.656 157.882 372.816 150.926 385.344C150.926 385.344 150.414 418.992 146.477 427.226C142.539 435.459 140.392 441.544 140.392 441.544L133.232 479.13L114.618 474.834C114.618 474.834 117.063 416.68 118.914 398.589C120.725 380.885 120.915 384.565 121.259 379.119C121.546 374.558 122.852 362.435 125.357 359.929C127.863 357.423 160.675 326.145 160.675 326.145C160.675 326.145 187.642 345.969 189.79 365.656Z" fill="#FFBF9D"/>
<path d="M231.389 350.648C228.913 351.267 181.787 379.119 181.787 379.119L150.926 333.318L183.73 309.179C183.73 309.179 195.181 294.324 196.109 294.634C197.038 294.943 236.031 300.823 237.888 301.442C239.744 302.061 231.389 350.648 231.389 350.648Z" fill="#263238"/>
<path d="M83.081 498.973C83.081 498.973 92.5903 501.637 100.742 500.849C108.893 500.061 120.903 497.046 125.322 495.989C129.742 494.932 142.654 496.325 143.509 491.799C144.364 487.272 135.151 470.674 135.151 470.674C135.151 470.674 133.894 475.691 129.406 475.571C124.919 475.45 116.174 473.216 116.174 473.216C116.174 473.216 112.327 467.397 109.745 467.2C107.163 467.003 108.11 474.311 108.11 474.311C108.11 474.311 101.924 483.182 97.6267 485.135C93.329 487.087 93.1838 488.413 88.1483 488.604C83.1125 488.794 80.7211 490.671 80.7211 490.671C80.7211 490.671 78.4602 494.821 79.6595 496.29C80.8587 497.759 83.081 498.973 83.081 498.973Z" fill="#263238"/>
<path d="M79.597 496.205C80.6651 497.858 83.0682 499.041 83.0682 499.041C83.0682 499.041 92.5775 501.705 100.729 500.917C108.88 500.129 120.89 497.114 125.31 496.057C129.729 495.001 142.641 496.393 143.497 491.866C143.743 490.628 143.658 489.363 143.25 488.072C143.25 488.072 130.232 491.758 123.921 491.726C117.61 491.693 104.223 496.285 97.0956 496.317C89.9684 496.349 81.9243 494.714 81.9243 494.714L79.5687 493.48C79.3021 494.522 78.956 495.244 79.597 496.205Z" fill="#455A64"/>
<path d="M99.2072 483.88C99.3321 483.87 99.4131 485.021 100.106 486.204C100.779 487.4 101.731 488.05 101.66 488.153C101.625 488.256 100.482 487.715 99.7438 486.412C98.9917 485.118 99.1012 483.859 99.2072 483.88Z" fill="white"/>
<path d="M103.272 480.185C103.397 480.162 103.589 481.536 104.544 482.881C105.476 484.243 106.698 484.898 106.634 485.008C106.612 485.113 105.209 484.583 104.201 483.12C103.177 481.669 103.166 480.169 103.272 480.185Z" fill="white"/>
<path d="M106.152 476.669C106.258 476.609 106.863 477.55 107.806 478.533C108.741 479.524 109.65 480.175 109.585 480.278C109.534 480.374 108.483 479.858 107.503 478.821C106.517 477.791 106.054 476.715 106.152 476.669Z" fill="white"/>
<path d="M130.956 485.821C130.964 485.877 130.323 486.021 129.274 486.177C128.226 486.334 126.769 486.494 125.154 486.584C123.539 486.674 122.073 486.676 121.014 486.636C119.954 486.597 119.302 486.525 119.303 486.469C119.307 486.347 121.919 486.349 125.131 486.167C128.343 485.993 130.939 485.701 130.956 485.821Z" fill="white"/>
<path d="M181.787 379.119L186.054 376.603L154.924 330.376L150.927 333.318L181.787 379.119Z" fill="#455A64"/>
<path d="M188.813 355.774C188.986 355.704 187.458 351.543 185.402 346.481C183.344 341.418 181.537 337.371 181.365 337.441C181.192 337.511 182.719 341.672 184.777 346.735C186.833 351.797 188.64 355.845 188.813 355.774Z" fill="#455A64"/>
<path d="M333.498 453.562C333.498 453.562 311.477 434.077 297.774 429.509C284.071 424.941 270.766 425.736 270.368 424.941C269.971 424.147 268.978 406.671 268.978 406.671L237.402 409.054C237.402 409.054 242.963 442.219 249.119 447.779C255.275 453.34 306.909 459.496 319.619 466.05L333.498 453.562Z" fill="#FFBF9D"/>
<path d="M261.89 293.132C263.747 293.441 273.064 313.676 273.064 328.84C273.064 344.004 276.881 397.687 276.881 401.401C276.881 405.114 276.881 415.327 276.881 414.708C276.881 414.089 229.532 414.735 229.532 414.735L214.227 324.501L261.89 293.132Z" fill="#263238"/>
<path d="M257.323 300.365C260.532 302.694 262.971 317.111 264.413 330.365C265.855 343.619 269.169 409.908 269.169 409.908H252.797C252.797 409.908 255.486 320.362 248.235 310.544L255.762 300.365" fill="#C53F3F"/>
<path d="M322.092 505.756C322.092 505.756 329.386 499.099 333.033 491.767C336.681 484.435 340.482 472.65 341.925 468.342C343.368 464.033 351.386 453.816 347.999 450.694C344.612 447.572 325.653 446.6 325.653 446.6C325.653 446.6 329.243 450.323 326.765 454.066C324.287 457.81 317.762 464.045 317.762 464.045C317.762 464.045 310.788 464.228 309.254 466.314C307.72 468.4 314.422 471.466 314.422 471.466C314.422 471.466 318.672 481.41 318.053 486.09C317.434 490.77 318.482 491.595 315.978 495.968C313.473 500.341 313.799 503.363 313.799 503.363C313.799 503.363 316.123 507.478 318.004 507.238C319.885 506.999 322.092 505.756 322.092 505.756Z" fill="#263238"/>
<path d="M317.899 507.247C319.867 507.216 322.143 505.804 322.143 505.804C322.143 505.804 329.437 499.146 333.084 491.814C336.732 484.482 340.533 472.697 341.976 468.388C343.419 464.08 351.437 453.863 348.05 450.741C347.13 449.876 346.192 449.532 344.88 449.195C344.88 449.195 340.935 461.937 337.566 467.273C334.197 472.61 331.005 486.398 327.259 492.461C323.512 498.524 317.866 504.483 317.866 504.483L315.573 505.828C316.315 506.605 316.744 507.282 317.899 507.247Z" fill="#455A64"/>
<path d="M317.825 484.084C317.884 483.974 318.903 484.514 320.273 484.553C321.644 484.615 322.7 484.151 322.75 484.266C322.818 484.35 321.754 485.033 320.258 484.97C318.762 484.923 317.751 484.163 317.825 484.084Z" fill="white"/>
<path d="M316.843 478.68C316.89 478.562 318.157 479.126 319.804 479.028C321.453 478.959 322.655 478.269 322.715 478.382C322.792 478.456 321.6 479.365 319.825 479.446C318.052 479.546 316.773 478.762 316.843 478.68Z" fill="white"/>
<path d="M315.385 474.376C315.391 474.254 316.509 474.239 317.842 473.96C319.178 473.691 320.212 473.264 320.265 473.374C320.319 473.468 319.324 474.086 317.926 474.369C316.53 474.66 315.372 474.483 315.385 474.376Z" fill="white"/>
<path d="M336.282 458.179C336.333 458.202 336.116 458.822 335.694 459.794C335.272 460.766 334.636 462.087 333.858 463.505C333.078 464.923 332.304 466.167 331.71 467.045C331.115 467.923 330.708 468.438 330.662 468.407C330.561 468.34 331.945 466.125 333.491 463.303C335.044 460.486 336.171 458.13 336.282 458.179Z" fill="white"/>
<path d="M276.881 414.708V409.907H228.713L229.532 414.735L276.881 414.708Z" fill="#455A64"/>
<path d="M114.166 341.863C125.913 330.117 125.913 311.072 114.166 299.326C102.42 287.579 83.375 287.579 71.6286 299.326C59.8822 311.072 59.8822 330.117 71.6286 341.863C83.3751 353.61 102.42 353.61 114.166 341.863Z" fill="#C53F3F"/>
<path d="M112.77 310.803C113.761 310.554 114.776 310.486 115.743 310.593C115.803 310.599 115.864 310.602 115.923 310.612L116.102 310.643L116.457 310.707C116.69 310.761 116.919 310.824 117.145 310.889C117.592 311.033 118.013 311.219 118.409 311.427C118.803 311.639 119.167 311.882 119.508 312.135C119.842 312.396 120.157 312.665 120.44 312.95C121.505 314.012 122.223 315.18 122.732 316.249C122.844 317.03 122.925 317.82 122.976 318.619C122.744 318.063 122.47 317.457 122.13 316.82C121.85 316.298 121.529 315.756 121.137 315.223C120.743 314.691 120.29 314.157 119.753 313.67C119.487 313.423 119.196 313.195 118.893 312.975C118.583 312.764 118.258 312.563 117.911 312.392C117.563 312.225 117.198 312.077 116.817 311.968C116.624 311.92 116.429 311.872 116.232 311.832L115.93 311.787L115.779 311.764C115.728 311.758 115.676 311.757 115.625 311.753C114.804 311.687 113.938 311.763 113.079 312C112.979 312.028 112.879 312.058 112.78 312.09C112.618 311.706 112.452 311.324 112.278 310.942C112.441 310.892 112.605 310.845 112.77 310.803Z" fill="#263238"/>
<path d="M110.56 313.115C108.938 314.109 107.575 315.657 106.438 317.453C105.297 319.252 104.372 321.31 103.412 323.43C102.457 325.548 101.55 327.637 100.624 329.64C100.161 330.642 99.6977 331.624 99.2209 332.576C98.987 333.054 98.7408 333.522 98.5037 333.986C98.2562 334.446 98.0197 334.904 97.768 335.348C95.8078 338.928 93.5815 341.926 91.3982 344.131C89.2209 346.351 87.1027 347.763 85.5762 348.569C85.1991 348.781 84.8462 348.936 84.5436 349.074C84.3916 349.142 84.253 349.207 84.1225 349.259C84.0967 349.269 83.9666 349.308 83.9418 349.317C83.7981 349.273 83.659 349.23 83.5162 349.184C83.5238 349.179 83.6339 349.139 83.6415 349.135L83.9653 348.945C84.0836 348.874 84.2097 348.79 84.3486 348.704C84.6251 348.53 84.9494 348.342 85.2964 348.099C86.7022 347.168 88.6581 345.683 90.6757 343.447C92.7015 341.221 94.7696 338.27 96.6287 334.73C96.8675 334.291 97.0925 333.836 97.3283 333.382C97.5545 332.922 97.7898 332.46 98.0143 331.985C98.4718 331.041 98.9193 330.065 99.3702 329.068C100.262 327.06 101.184 324.981 102.13 322.852C103.093 320.728 104.045 318.62 105.277 316.71C105.587 316.236 105.905 315.77 106.252 315.328C106.419 315.104 106.604 314.892 106.78 314.677C106.967 314.469 107.146 314.257 107.341 314.06C107.72 313.657 108.129 313.287 108.553 312.938C108.77 312.77 108.982 312.599 109.208 312.448C109.32 312.373 109.427 312.291 109.542 312.221L109.884 312.009C110.239 311.794 110.603 311.603 110.974 311.435C111.151 311.823 111.32 312.212 111.486 312.602C111.171 312.754 110.862 312.925 110.56 313.115Z" fill="#263238"/>
<path d="M66.5724 334.772C66.6557 334.639 66.7455 334.496 66.8415 334.344C66.9396 334.193 67.049 334.035 67.1631 333.867L67.9341 332.755C68.2225 332.353 68.5477 331.926 68.8937 331.463C69.2354 330.997 69.6286 330.52 70.0363 330.007C70.4405 329.491 70.894 328.967 71.3649 328.412C71.8301 327.851 72.3512 327.295 72.8803 326.701C73.143 326.403 73.4277 326.114 73.7108 325.813C73.9963 325.514 74.2838 325.207 74.5831 324.901C74.8864 324.598 75.1948 324.291 75.5083 323.978C75.6657 323.823 75.8221 323.663 75.9841 323.507L76.4775 323.04C76.81 322.728 77.1437 322.406 77.4894 322.089C77.8389 321.775 78.1931 321.458 78.5517 321.136C78.9071 320.81 79.2834 320.5 79.658 320.178C80.0349 319.86 80.4107 319.531 80.8064 319.218C81.1989 318.901 81.5956 318.58 81.9962 318.257C82.4048 317.944 82.8173 317.627 83.2335 317.308C84.9098 316.047 86.6924 314.802 88.5687 313.606C90.4514 312.417 92.3373 311.335 94.1933 310.356C94.6595 310.115 95.1216 309.876 95.5792 309.64C96.0426 309.416 96.5014 309.193 96.9556 308.973C97.4075 308.748 97.8653 308.549 98.3143 308.343C98.7646 308.141 99.206 307.933 99.6521 307.75C100.096 307.563 100.534 307.378 100.967 307.195C101.402 307.018 101.834 306.853 102.259 306.685L102.892 306.438C103.102 306.358 103.313 306.284 103.521 306.208C103.937 306.058 104.347 305.91 104.75 305.764C105.154 305.624 105.555 305.495 105.947 305.364C106.34 305.236 106.722 305.101 107.104 304.991C107.183 304.967 107.259 304.944 107.337 304.921L107.359 304.953L107.618 305.358L107.93 305.844C107.769 305.899 107.606 305.955 107.441 306.011C107.069 306.133 106.696 306.279 106.313 306.417C105.931 306.559 105.54 306.699 105.145 306.849C104.752 307.003 104.352 307.16 103.946 307.32C103.743 307.4 103.538 307.478 103.333 307.562C103.128 307.648 102.923 307.734 102.715 307.821C102.301 307.996 101.878 308.168 101.454 308.352L100.17 308.924C99.7344 309.112 99.3034 309.324 98.8634 309.53C98.4247 309.739 97.9771 309.942 97.5354 310.169C97.0912 310.391 96.6424 310.616 96.1893 310.843C95.7413 311.08 95.2891 311.319 94.8329 311.56C93.0156 312.54 91.166 313.613 89.3144 314.781C87.4691 315.958 85.711 317.174 84.0508 318.4C83.6382 318.71 83.2291 319.017 82.8241 319.321C82.4259 319.635 82.0317 319.945 81.6416 320.252C81.2478 320.555 80.8736 320.873 80.4977 321.181C80.124 321.491 79.7482 321.791 79.3925 322.104L78.3282 323.022C77.9812 323.328 77.6457 323.637 77.3108 323.937L76.8133 324.385C76.6499 324.535 76.4921 324.688 76.3329 324.837C76.0156 325.136 75.703 325.431 75.3958 325.72C75.0919 326.013 74.7994 326.308 74.5082 326.593C74.2195 326.881 73.9288 327.156 73.6593 327.441C73.1169 328.007 72.5803 328.537 72.0977 329.069C71.6092 329.597 71.1361 330.093 70.7104 330.581C70.2812 331.067 69.8646 331.515 69.4978 331.954C69.1245 332.388 68.7772 332.791 68.4574 333.163C68.1426 333.54 67.8549 333.884 67.5962 334.193C67.4654 334.347 67.3421 334.492 67.2261 334.629C67.1122 334.767 67.0056 334.896 66.9066 335.016C66.8383 335.098 66.7316 335.258 66.67 335.331C66.601 335.208 66.5149 335.053 66.4478 334.929C66.4694 334.894 66.5496 334.808 66.5724 334.772Z" fill="#263238"/>
<path d="M108.703 304.512C108.901 304.455 109.098 304.399 109.292 304.349C109.99 304.159 110.651 303.972 111.285 303.827C111.918 303.676 112.511 303.524 113.074 303.413C113.636 303.298 114.157 303.185 114.639 303.096C115.123 303.014 115.565 302.939 115.962 302.872C116.161 302.841 116.349 302.809 116.526 302.784C116.703 302.763 116.869 302.742 117.023 302.723L117.11 302.713C117.194 302.828 117.278 302.944 117.361 303.06C117.278 303.082 117.192 303.105 117.101 303.129C116.952 303.168 116.791 303.209 116.619 303.254C116.447 303.3 116.265 303.35 116.072 303.403C115.685 303.505 115.254 303.619 114.784 303.743C114.315 303.874 113.806 304.016 113.259 304.169C112.711 304.314 112.132 304.5 111.515 304.681C110.897 304.858 110.252 305.075 109.573 305.292C109.472 305.323 109.37 305.357 109.268 305.39C109.099 305.127 108.931 304.866 108.764 304.606L108.703 304.512Z" fill="#263238"/>
<path d="M103.147 299.522C103.02 299.567 102.891 299.612 102.761 299.655C102.45 299.757 102.132 299.845 101.808 299.943C101.482 300.035 101.149 300.12 100.809 300.206C99.4485 300.534 97.9739 300.785 96.4186 300.959C94.8632 301.13 93.2279 301.231 91.5403 301.287C89.8524 301.348 88.1114 301.366 86.3399 301.414C85.454 301.437 84.581 301.466 83.7237 301.511C82.8661 301.554 82.024 301.611 81.2005 301.69C79.5524 301.839 77.9805 302.081 76.5084 302.409C75.0378 302.747 73.6774 303.179 72.448 303.7C71.2211 304.224 70.1285 304.826 69.1851 305.455C68.2421 306.085 67.4449 306.738 66.7954 307.364C66.6328 307.521 66.4852 307.681 66.3368 307.83C66.2644 307.906 66.1885 307.976 66.1224 308.052L65.9274 308.276C65.8012 308.422 65.6737 308.558 65.562 308.696L65.2496 309.093C65.0849 309.289 64.9561 309.481 64.835 309.652C65.168 308.797 65.5397 307.962 65.9467 307.148C66.0351 307.039 66.1252 306.929 66.2222 306.819C66.8509 306.105 67.6462 305.36 68.6055 304.64C69.5651 303.921 70.6914 303.232 71.9672 302.631C73.244 302.033 74.6754 301.531 76.2038 301.143C77.7356 300.764 79.3684 300.485 81.0631 300.312C81.9105 300.222 82.7733 300.156 83.6475 300.107C84.522 300.056 85.4078 300.024 86.3021 300.001C88.092 299.952 89.8297 299.945 91.4995 299.903C93.17 299.866 94.7721 299.794 96.289 299.663C97.8048 299.529 99.2333 299.329 100.552 299.063C101.173 298.932 101.772 298.794 102.339 298.639L102.504 298.816C102.72 299.048 102.934 299.284 103.147 299.522Z" fill="#263238"/>
<path d="M104.106 298.043C104.614 297.826 105.074 297.578 105.47 297.296C105.863 297.015 106.21 296.701 106.465 296.375C106.989 295.713 107.236 294.987 107.315 294.392C107.328 294.3 107.334 294.211 107.338 294.125C107.515 294.221 107.69 294.319 107.864 294.419L107.864 294.425C107.862 295.122 107.666 295.994 107.105 296.84C106.539 297.685 105.624 298.412 104.525 298.95C104.491 298.967 104.455 298.982 104.421 298.999C104.18 298.731 103.937 298.467 103.693 298.208C103.834 298.155 103.972 298.1 104.106 298.043Z" fill="#263238"/>
<path d="M107.359 304.953L107.337 304.921L107.086 304.559C105.844 302.737 104.515 301.056 103.147 299.522C102.934 299.284 102.721 299.048 102.506 298.817L102.341 298.639C102.197 298.484 102.054 298.33 101.911 298.176C101.71 297.969 101.511 297.762 101.308 297.561C100.906 297.157 100.5 296.768 100.093 296.395C99.2789 295.647 98.4528 294.966 97.6178 294.362C96.785 293.754 95.9374 293.233 95.0951 292.789C94.8855 292.676 94.6716 292.578 94.4633 292.473C94.2536 292.383 94.0498 292.291 93.8414 292.207C93.6285 292.131 93.4199 292.051 93.2099 291.979L92.5778 291.782C91.7357 291.542 90.9141 291.364 90.1315 291.22C89.3468 291.089 88.6017 290.982 87.9011 290.922L87.804 290.914C88.9599 290.714 90.1381 290.58 91.3353 290.516C91.8233 290.603 92.3229 290.705 92.8358 290.832L93.5124 291.018C93.7398 291.087 93.9686 291.166 94.2007 291.241C94.4315 291.325 94.6646 291.421 94.8988 291.514C95.1228 291.619 95.3533 291.717 95.5787 291.83C96.4846 292.274 97.3946 292.802 98.2834 293.419C99.1749 294.032 100.052 294.726 100.911 295.484C101.341 295.863 101.767 296.257 102.188 296.667C102.401 296.87 102.609 297.08 102.819 297.289L103.44 297.937C103.525 298.026 103.609 298.118 103.693 298.208C103.937 298.467 104.18 298.731 104.421 298.999C105.737 300.462 107.014 302.059 108.211 303.787L108.494 304.191L108.703 304.512L108.764 304.606C108.933 304.866 109.103 305.127 109.273 305.39L109.307 305.441C109.493 305.718 109.655 306.011 109.831 306.298C110.003 306.587 110.176 306.877 110.349 307.168C110.512 307.465 110.676 307.763 110.84 308.062C110.922 308.212 111.004 308.362 111.086 308.512C111.169 308.662 111.25 308.813 111.324 308.968C111.478 309.275 111.631 309.584 111.785 309.893C111.862 310.048 111.939 310.204 112.016 310.359C112.087 310.517 112.159 310.676 112.23 310.834C112.246 310.87 112.262 310.906 112.278 310.942C112.452 311.324 112.618 311.707 112.78 312.09C113.676 314.214 114.396 316.362 114.929 318.489C115.573 321.036 115.935 323.558 116.072 325.967C116.209 328.377 116.122 330.675 115.878 332.805C115.627 334.934 115.215 336.892 114.731 338.645C114.333 340.136 113.843 341.467 113.365 342.648C112.946 343.034 112.518 343.411 112.078 343.773C112.18 343.518 112.282 343.255 112.386 342.982C112.862 341.652 113.381 340.129 113.779 338.398C114.19 336.674 114.535 334.759 114.73 332.685C114.918 330.611 114.959 328.381 114.792 326.049C114.625 323.719 114.248 321.286 113.607 318.824C113.073 316.758 112.364 314.67 111.486 312.602C111.321 312.212 111.151 311.823 110.974 311.435L110.965 311.415L110.758 310.954C110.683 310.803 110.608 310.653 110.534 310.502C110.385 310.202 110.236 309.902 110.088 309.603C110.016 309.453 109.938 309.306 109.857 309.161L109.62 308.723L109.146 307.854L108.646 307.008C108.477 306.728 108.321 306.442 108.141 306.173L107.93 305.844L107.618 305.358L107.359 304.953Z" fill="#263238"/>
<path d="M153.103 203.092C152.617 204.233 145.504 209.924 148.052 228.582L140.443 264.343L101.175 276.496L102.386 287.878C102.386 287.878 148.052 292.877 158.324 282.605C168.596 272.333 167.455 246.673 167.455 246.673L153.103 203.092Z" fill="#FFBF9D"/>
<path d="M114.618 273.727C114.618 273.727 102.043 276.015 97.9369 277.384C93.8303 278.753 78.0888 289.247 78.0888 289.247C78.0888 289.247 63.3032 306.577 64.3298 307.261C65.3564 307.946 66.4161 308.785 67.7849 307.873C69.1537 306.96 73.1838 301.11 73.2978 301.224C73.4119 301.338 70.332 309.863 71.1305 310.05C71.929 310.236 72.2712 311.263 74.7808 309.209C77.2902 307.156 78.8872 300.084 79.2294 300.084C79.5716 300.084 88.5832 293.582 88.5832 293.582C88.5832 293.582 82.7656 299.285 84.7048 301.338C86.644 303.392 87.8508 301.201 89.676 300.289C91.501 299.376 99.8761 293.126 101.131 290.274C102.386 287.422 102.386 287.878 102.386 287.878L108.254 287.992L114.618 273.727Z" fill="#FFBF9D"/>
<path d="M91.1195 291.846C91.0556 291.677 90.1143 291.907 89.2365 292.672C88.3542 293.432 87.993 294.331 88.1509 294.418C88.3148 294.519 88.8851 293.862 89.6784 293.182C90.4637 292.494 91.1958 292.022 91.1195 291.846Z" fill="#6F4439"/>
<path d="M145.818 266.414C145.941 266.287 144.916 265.186 143.243 264.467C141.573 263.738 140.07 263.742 140.061 263.919C140.037 264.113 141.414 264.401 142.974 265.087C144.541 265.757 145.692 266.564 145.818 266.414Z" fill="#6F4439"/>
<path d="M129.407 144.466C126.612 145.522 123.155 144.38 121.539 141.868C121.053 141.111 120.718 140.218 120.81 139.324C120.902 138.43 121.496 137.553 122.364 137.318C121.013 136.777 119.846 135.721 119.312 134.367C118.778 133.014 118.939 131.373 119.842 130.233C120.746 129.092 122.403 128.564 123.755 129.099C123.383 127.572 123.981 125.852 125.221 124.886L131.793 124.922L129.407 144.466Z" fill="#263238"/>
<path d="M155.716 208.644L149.367 189.322C149.367 189.322 135.816 190.122 132.816 177.051C131.368 170.738 129.442 157.496 127.838 145.491C126.113 132.583 134.591 120.518 147.318 117.762L148.583 117.488C162.391 115.331 171.937 125.853 173.71 139.717L178.923 190.482L167.116 209.198L155.716 208.644Z" fill="#FFBF9D"/>
<path d="M149.367 189.322C149.367 189.322 157.779 188.227 165.671 181.989C165.671 181.989 163.467 191.007 150.134 192.658L149.367 189.322Z" fill="#6F4439"/>
<path d="M135.096 156.818C135.274 157.813 136.266 158.483 137.309 158.315C138.351 158.147 139.052 157.205 138.873 156.21C138.693 155.214 137.703 154.543 136.661 154.71C135.617 154.878 134.916 155.822 135.096 156.818Z" fill="#263238"/>
<path d="M132.044 151.293C132.329 151.486 133.519 150.13 135.535 149.699C137.542 149.239 139.244 149.956 139.409 149.662C139.493 149.53 139.161 149.14 138.416 148.811C137.682 148.481 136.503 148.262 135.249 148.539C133.996 148.817 133.041 149.508 132.536 150.112C132.02 150.721 131.906 151.208 132.044 151.293Z" fill="#263238"/>
<path d="M156.158 164.69C155.815 164.654 155.411 166.413 153.841 167.749C152.292 169.105 150.453 169.282 150.448 169.618C150.436 169.775 150.913 169.961 151.725 169.897C152.528 169.839 153.67 169.473 154.643 168.634C155.613 167.795 156.127 166.734 156.285 165.963C156.45 165.181 156.32 164.699 156.158 164.69Z" fill="#263238"/>
<path d="M152.484 153.726C152.663 154.722 153.654 155.391 154.698 155.223C155.74 155.056 156.441 154.114 156.262 153.118C156.083 152.122 155.091 151.451 154.049 151.619C153.006 151.786 152.305 152.73 152.484 153.726Z" fill="#263238"/>
<path d="M151.923 147.381C152.208 147.575 153.401 146.219 155.415 145.788C157.421 145.329 159.124 146.045 159.289 145.751C159.372 145.618 159.043 145.228 158.295 144.9C157.56 144.57 156.382 144.351 155.128 144.627C153.875 144.906 152.92 145.596 152.415 146.2C151.901 146.809 151.786 147.296 151.923 147.381Z" fill="#263238"/>
<path d="M147.848 163.901C147.833 163.785 146.534 163.839 144.449 164.019C143.924 164.078 143.415 164.081 143.252 163.748C143.05 163.403 143.145 162.802 143.265 162.149C143.479 160.801 143.702 159.386 143.938 157.904C144.843 151.871 145.378 146.955 145.135 146.92C144.892 146.886 143.961 151.748 143.057 157.782C142.846 159.267 142.644 160.683 142.453 162.037C142.385 162.664 142.194 163.399 142.623 164.113C142.845 164.468 143.283 164.665 143.632 164.682C143.983 164.711 144.274 164.654 144.531 164.614C146.597 164.282 147.865 164.017 147.848 163.901Z" fill="#263238"/>
<path d="M149.693 139.601C150.011 140.105 151.966 139.41 154.39 139.184C156.81 138.908 158.865 139.187 159.073 138.628C159.162 138.363 158.718 137.919 157.832 137.556C156.954 137.192 155.627 136.953 154.174 137.102C152.722 137.254 151.472 137.761 150.687 138.298C149.895 138.835 149.552 139.36 149.693 139.601Z" fill="#263238"/>
<path d="M131.522 145.303C131.975 145.684 133.26 144.909 134.924 144.525C136.573 144.083 138.072 144.165 138.293 143.616C138.385 143.353 138.064 142.943 137.352 142.644C136.651 142.344 135.557 142.212 134.418 142.495C133.279 142.779 132.376 143.409 131.896 144.003C131.409 144.601 131.317 145.114 131.522 145.303Z" fill="#263238"/>
<path d="M127.797 139.207C127.797 139.207 129.476 130.25 133.019 127.478C137.308 124.122 140.51 128.935 144.799 126.669C149.089 124.404 153.181 121.188 158.612 123.708C164.556 126.465 162.75 129.693 164.325 135.44C170.71 158.74 176.46 164.476 175.279 153.105C175.15 151.859 178.317 150.16 177.704 144.911C176.91 138.105 175.413 129.956 172.901 125.548C170.784 121.832 167.914 119.57 163.18 117.416C155.707 114.016 146.845 115.827 140.973 117.731C135.102 119.635 125.024 129.049 127.797 139.207Z" fill="#263238"/>
<path d="M174.08 152.975C173.724 150.934 175.122 148.959 177.179 148.714C179.673 148.417 182.694 149.216 183.626 154.302C185.281 163.325 175.881 163.124 175.818 162.869C175.775 162.695 174.739 156.756 174.08 152.975Z" fill="#FFBF9D"/>
<path d="M177.446 159.069C177.48 159.032 177.623 159.15 177.911 159.223C178.192 159.294 178.652 159.294 179.091 159.031C179.98 158.507 180.505 156.847 180.25 155.213C180.123 154.387 179.807 153.637 179.398 153.043C179.001 152.433 178.49 152.05 177.994 152.053C177.497 152.031 177.21 152.38 177.146 152.654C177.071 152.929 177.161 153.098 177.116 153.122C177.095 153.15 176.895 153.006 176.899 152.621C176.904 152.435 176.971 152.202 177.151 151.991C177.335 151.774 177.637 151.626 177.978 151.601C178.682 151.522 179.426 152.047 179.876 152.699C180.365 153.347 180.739 154.187 180.882 155.114C181.158 156.943 180.539 158.815 179.304 159.43C178.699 159.713 178.135 159.618 177.823 159.456C177.502 159.284 177.418 159.091 177.446 159.069Z" fill="#6F4439"/>
<path d="M139.704 134.897C139.682 134.902 139.664 134.914 139.642 134.919C139.589 134.934 139.535 134.946 139.483 134.964L139.704 134.897Z" fill="#C53F3F"/>
<path d="M119.919 122.815C120.231 120.37 122.055 118.297 124.262 117.201C126.469 116.105 129.013 115.872 131.474 115.997C130.625 112.773 133.742 109.6 137.039 109.095C140.335 108.589 143.602 109.937 146.665 111.256C150.183 108.06 156.463 108.747 159.208 112.627C161.336 110.87 164.42 110.352 167.005 111.319C169.591 112.285 171.578 114.699 172.032 117.421C174.241 117.431 176.396 118.74 177.423 120.694C178.451 122.649 178.308 125.166 177.064 126.991C178.752 127.665 179.9 129.499 179.769 131.312C179.639 133.125 178.239 134.775 176.472 135.2L168.867 130.631C165.415 131.935 161.077 129.645 160.208 126.059C157.675 127.631 154.19 127.49 151.793 125.719C151.509 127.512 150.287 129.128 148.639 129.889C146.991 130.649 144.967 130.53 143.42 129.581C143.647 132.046 142.331 134.586 140.188 135.823C138.045 137.06 135.187 136.929 133.167 135.501C131.259 137.803 127.51 138.284 125.084 136.536C122.658 134.789 121.925 131.081 123.504 128.543C121.113 127.948 119.607 125.259 119.919 122.815Z" fill="#263238"/>
<path d="M160.945 127.478C160.915 127.492 160.984 127.763 161.255 128.191C161.525 128.613 162.021 129.196 162.838 129.655C163.64 130.109 164.812 130.429 166.075 130.14C167.316 129.868 168.617 129.029 169.338 127.659L168.813 127.74C169.38 128.309 170.096 128.768 170.891 129.054C172.591 129.659 174.448 129.456 175.791 128.645C177.159 127.84 177.907 126.546 178.238 125.452C178.573 124.335 178.503 123.373 178.369 122.753C178.222 122.128 178.034 121.823 178.002 121.836C177.866 121.846 178.506 123.234 177.79 125.304C177.43 126.298 176.703 127.437 175.484 128.113C174.289 128.801 172.628 128.965 171.116 128.426C170.409 128.172 169.779 127.77 169.279 127.28L168.957 126.965L168.755 127.361C168.154 128.538 167.028 129.31 165.942 129.582C164.844 129.872 163.799 129.643 163.035 129.276C161.478 128.5 161.036 127.401 160.945 127.478Z" fill="#455A64"/>
<path d="M266.049 290.255C265.655 291.505 270.185 303.361 238.157 314.638C206.129 325.914 205.401 325.914 198.491 321.186C191.581 316.458 183.73 309.179 183.73 309.179C183.73 309.179 179.916 307.729 181.748 302.274C183.58 296.819 177.398 281.544 177.398 281.544C177.398 281.544 166.851 265.264 159.577 246.673C152.304 228.083 153.103 200.806 153.103 200.806L157.125 207.301C157.703 207.301 178.451 180.7 179.594 180.928C181.412 181.292 200.869 178.258 214.227 188.805C227.586 199.352 245.554 240.892 245.554 240.892C245.554 240.892 268.958 281.007 266.049 290.255Z" fill="#263238"/>
<path d="M183.731 309.179C183.713 309.195 183.877 309.397 184.205 309.768C184.589 310.19 185.072 310.72 185.665 311.372C187.016 312.678 188.95 314.625 191.719 316.571C194.455 318.547 198.032 320.511 202.313 321.856C204.459 322.496 206.77 322.984 209.197 323.233C211.625 323.469 214.16 323.452 216.73 323.209C221.885 322.729 226.642 321.33 230.811 319.762C234.974 318.157 238.582 316.384 241.538 314.775C244.495 313.167 246.825 311.758 248.413 310.751C249.212 310.255 249.817 309.846 250.229 309.572C250.639 309.295 250.848 309.139 250.836 309.12C250.824 309.1 250.59 309.216 250.158 309.456C249.663 309.737 249.041 310.091 248.278 310.526C246.65 311.462 244.288 312.805 241.314 314.353C238.342 315.902 234.733 317.62 230.592 319.18C226.447 320.703 221.74 322.065 216.666 322.537C214.136 322.777 211.645 322.798 209.26 322.574C206.876 322.339 204.606 321.873 202.493 321.261C198.279 319.972 194.733 318.084 191.992 316.18C189.22 314.306 187.25 312.427 185.849 311.185C185.222 310.571 184.71 310.072 184.304 309.675C183.945 309.335 183.748 309.164 183.731 309.179Z" fill="#455A64"/>
<path d="M215.882 247.945C215.882 247.945 198.683 244.849 189.79 232.807C180.897 220.764 174.857 193.417 183.822 187.324C194.56 180.025 207.555 180.403 219.555 194.251C231.556 208.099 248.99 241.587 215.882 247.945Z" fill="#455A64"/>
<path d="M195.526 185.243C195.526 185.243 209.1 186.213 216.967 192.659C224.834 199.104 234.033 216.656 230.397 226.076C226.761 235.496 221.473 245.082 206.929 238.967C192.386 232.852 184.697 214.478 182.592 206.973C180.486 199.468 181.478 186.223 195.526 185.243Z" fill="#FFBF9D"/>
<path d="M190.921 304.583C190.907 304.599 191.018 304.715 191.243 304.921C191.474 305.12 191.796 305.442 192.266 305.788C193.181 306.512 194.599 307.464 196.508 308.377C200.265 310.216 206.344 311.695 212.907 310.162L213.788 309.956L212.986 309.54C212.136 309.099 211.237 308.633 210.326 308.16C203.815 304.864 197.631 302.496 193.093 301.018C190.822 300.277 188.964 299.748 187.673 299.407C186.381 299.073 185.659 298.918 185.647 298.961C185.634 299.008 186.332 299.248 187.599 299.659C188.864 300.077 190.696 300.674 192.938 301.47C197.423 303.058 203.544 305.484 210.022 308.763C210.929 309.231 211.824 309.694 212.671 310.131L212.75 309.51C206.381 311.018 200.437 309.667 196.695 307.967C192.884 306.27 191.006 304.46 190.921 304.583Z" fill="#455A64"/>
<path d="M196.067 277.584C196.099 277.4 192.603 276.645 188.26 275.897C183.916 275.149 180.369 274.692 180.337 274.875C180.306 275.059 183.801 275.814 188.146 276.562C192.489 277.31 196.036 277.767 196.067 277.584Z" fill="#455A64"/>
<path d="M184.311 258.753C185.817 263.107 185.222 267.776 180.902 269.271C178.773 270.008 176.236 269.77 174.147 268.51L173.932 263.462C175.592 264.539 177.494 264.832 179.077 264.284C180.838 263.675 181.5 262.081 180.772 259.977C180.095 258.022 178.827 257.098 176.83 257.788L175.222 258.345L173.857 254.396L174.902 247.3L168.431 249.539L166.771 244.742L177.41 241.061L178.751 244.934L177.62 252.764C180.61 252.554 182.996 254.953 184.311 258.753Z" fill="#C53F3F"/>
<path d="M207.274 275.331C207.343 275.158 198.859 271.628 188.328 267.447C177.793 263.265 169.2 260.017 169.131 260.19C169.062 260.363 177.544 263.893 188.079 268.074C198.61 272.255 207.205 275.504 207.274 275.331Z" fill="#455A64"/>
<path d="M229.784 330.468C229.784 330.468 229.616 345.044 227.734 351.717C225.852 358.389 225.339 358.903 224.312 360.271C223.286 361.64 221.575 362.667 219.522 361.811C219.522 361.811 218.495 366.089 216.271 366.602C214.047 367.115 212.678 366.602 212.678 366.602C212.678 366.602 211.309 371.564 209.085 370.537C206.861 369.511 208.058 366.773 208.058 363.693C208.058 360.614 209.598 352.059 208.914 351.888C208.229 351.717 206.176 358.218 206.005 359.929C205.834 361.64 206.518 366.602 204.807 368.484C203.096 370.366 201.728 368.997 201.728 368.997C201.728 368.997 200.017 359.416 200.872 357.192C201.728 354.967 201.557 354.283 201.557 354.283C201.557 354.283 196.424 357.705 194.542 354.112C194.542 354.112 197.621 351.032 198.648 348.808C199.675 346.584 205.321 336.831 206.347 336.318C207.374 335.805 214.772 325.676 214.772 325.676L229.784 330.468Z" fill="#FFBF9D"/>
<path d="M216.241 353.835C216.062 353.783 215.058 356.724 214 360.402C212.941 364.081 212.228 367.104 212.407 367.156C212.586 367.207 213.59 364.267 214.648 360.588C215.707 356.91 216.42 353.886 216.241 353.835Z" fill="#6F4439"/>
<path d="M221.579 354.255C221.402 354.196 220.762 355.937 220.15 358.143C219.537 360.351 219.189 362.172 219.371 362.212C219.553 362.252 220.193 360.512 220.8 358.324C221.407 356.137 221.755 354.315 221.579 354.255Z" fill="#6F4439"/>
<path d="M207.525 341.402C207.516 341.364 207.289 341.359 206.931 341.534C206.572 341.704 206.124 342.093 205.733 342.664C204.984 343.816 204.145 345.455 203.38 347.369C201.848 351.202 201.528 354.561 201.7 354.575C201.897 354.61 202.507 351.367 204.008 347.616C204.751 345.75 205.531 344.065 206.136 342.92C206.749 341.76 207.556 341.489 207.525 341.402Z" fill="#6F4439"/>
<path d="M199.559 185.268C200.96 185.33 217.438 188.844 224.04 204.523C230.642 220.202 257.323 270.321 257.323 274.997C257.323 279.674 229.587 326.904 229.587 331.445C229.587 332.82 213.823 326.965 213.823 326.965L230.549 275.015C230.549 275.015 221.839 257.336 216.613 249.084C211.387 240.832 199.559 224.603 199.559 224.603C199.559 224.603 174.527 212.225 183.88 193.52C183.88 193.52 187.181 184.718 199.559 185.268Z" fill="#FFBF9D"/>
<path d="M192.467 220.838C192.438 220.843 192.493 221.326 192.942 222.051C193.378 222.779 194.263 223.684 195.561 224.451C196.849 225.244 198.541 225.823 200.187 226.786C201.009 227.271 201.774 227.887 202.424 228.692C203.081 229.486 203.661 230.419 204.291 231.356C206.788 235.114 209.08 238.494 210.767 240.922C211.611 242.136 212.303 243.112 212.794 243.778C213.285 244.444 213.575 244.8 213.614 244.774C213.653 244.748 213.437 244.343 213.013 243.632C212.589 242.922 211.957 241.905 211.165 240.658C209.579 238.162 207.35 234.74 204.853 230.983C204.225 230.051 203.638 229.109 202.931 228.268C202.237 227.419 201.371 226.739 200.501 226.249C198.75 225.27 197.062 224.749 195.798 224.037C194.518 223.348 193.639 222.55 193.159 221.903C192.666 221.26 192.526 220.815 192.467 220.838Z" fill="#6F4439"/>
<path d="M194.34 185.29C194.327 185.466 197.58 185.021 202.513 186.42C204.963 187.12 207.775 188.33 210.628 190.126C213.477 191.923 216.35 194.321 218.958 197.21C224.178 203.025 227.345 209.501 229.041 214.307C229.909 216.716 230.44 218.725 230.781 220.117C231.125 221.51 231.286 222.29 231.341 222.28C231.364 222.276 231.349 222.077 231.301 221.701C231.25 221.325 231.18 220.768 231.037 220.062C230.774 218.645 230.31 216.603 229.492 214.151C227.895 209.261 224.761 202.665 219.458 196.758C216.81 193.823 213.875 191.399 210.958 189.599C208.036 187.8 205.149 186.613 202.64 185.96C200.127 185.301 198.02 185.149 196.577 185.131C195.854 185.126 195.293 185.189 194.915 185.21C194.536 185.24 194.339 185.267 194.34 185.29Z" fill="#6F4439"/>
<path d="M387.756 288.745L450.813 287.475C450.813 287.475 383.548 264.838 387.756 288.745Z" fill="#263238"/>
<path d="M380.298 377.656C380.298 377.656 381.583 397.617 381.496 401.722C381.297 411.065 379.005 433.633 379.005 433.633C377.688 437.023 367.042 459.162 364.397 468.546C361.752 477.931 362.886 486.593 362.667 491.597C362.449 496.6 358.942 518.554 358.942 518.554L374.919 523.284C374.919 523.284 376.116 507.306 387.329 481.267C394.917 463.646 403.346 447.164 406.585 435.604L406.71 435.613C406.71 435.613 426.033 390.88 425.759 377.138C425.485 363.397 380.298 377.656 380.298 377.656Z" fill="#AE7461"/>
<path d="M358.801 516.03L361.445 501.952L380.035 502.095C380.035 502.095 374.996 519.517 375.792 523.49C376.587 527.463 371.249 527.304 371.249 527.304L357.043 524.708L358.801 516.03Z" fill="#455A64"/>
<path d="M387.184 558.48C387.184 558.48 378.683 556.421 372.726 552.283C366.769 548.144 358.795 540.615 355.838 537.885C352.881 535.155 342.302 530.64 343.601 526.772C344.9 522.905 359.205 514.07 359.205 514.07C359.205 514.07 358.004 518.49 361.524 520.34C365.043 522.19 372.767 524.25 372.767 524.25C372.767 524.25 378.259 521.42 380.339 522.386C382.419 523.352 378.523 528.588 378.523 528.588C378.523 528.588 379.462 538.121 381.937 541.49C384.412 544.859 383.95 545.947 387.758 548.274C391.566 550.602 392.602 553.087 392.602 553.087C392.602 553.087 392.552 557.273 390.989 557.888C389.426 558.504 387.184 558.48 387.184 558.48Z" fill="#263238"/>
<path d="M391.074 557.85C389.533 558.665 387.164 558.539 387.164 558.539C387.164 558.539 378.663 556.479 372.707 552.341C366.75 548.203 358.776 540.673 355.819 537.943C352.862 535.214 342.282 530.698 343.581 526.831C343.927 525.767 344.541 524.827 345.415 524.006C345.415 524.006 353.877 532.49 358.767 535.198C363.657 537.906 372.012 547.25 377.505 550.36C382.998 553.471 389.921 555.69 389.921 555.69L392.275 555.757C392.031 556.677 391.985 557.385 391.074 557.85Z" fill="#455A64"/>
<path d="M381.259 539.836C381.166 539.775 380.606 540.629 379.558 541.243C378.52 541.876 377.503 541.965 377.513 542.076C377.496 542.17 378.613 542.247 379.748 541.56C380.889 540.886 381.35 539.866 381.259 539.836Z" fill="white"/>
<path d="M379.719 535.222C379.632 535.15 378.888 536.128 377.568 536.754C376.258 537.403 375.03 537.38 375.032 537.492C375.004 537.583 376.317 537.781 377.729 537.087C379.149 536.409 379.807 535.255 379.719 535.222Z" fill="white"/>
<path d="M379.015 531.258C378.959 531.166 378.084 531.631 376.93 531.982C375.779 532.343 374.794 532.452 374.8 532.56C374.798 532.656 375.833 532.712 377.04 532.336C378.247 531.967 379.071 531.336 379.015 531.258Z" fill="white"/>
<path d="M355.888 527.59C355.858 527.629 356.291 528.018 357.033 528.593C357.775 529.167 358.831 529.922 360.04 530.691C361.25 531.46 362.381 532.096 363.217 532.524C364.052 532.952 364.588 533.179 364.611 533.135C364.661 533.04 362.642 531.91 360.239 530.379C357.833 528.853 355.953 527.504 355.888 527.59Z" fill="white"/>
<path d="M379.225 432.325L379.843 424.891L410.535 426.424C410.535 426.424 406.71 435.613 405.253 439.827C403.796 444.042 393.45 467.518 393.45 467.518L369.769 454.422L379.225 432.325Z" fill="#263238"/>
<path d="M424.164 175.941C424.164 175.941 440.434 166.81 456.339 172.082L493.09 172.626C493.09 172.626 528.491 166.7 552.009 172.111L550.548 181.633C550.548 181.633 505.885 187.062 501.044 188.266C496.202 189.47 441.774 198.599 440.523 201.08C439.272 203.562 433.473 215.44 433.473 215.44L424.164 175.941Z" fill="#AE7461"/>
<path d="M453.014 187.663C452.972 187.592 451.971 188.082 450.488 189.098C449.005 190.11 447.065 191.688 445.198 193.706C443.335 195.729 441.917 197.788 441.026 199.347C440.132 200.907 439.724 201.943 439.797 201.98C439.985 202.087 442.004 198.127 445.694 194.164C449.349 190.17 453.136 187.842 453.014 187.663Z" fill="#6F4439"/>
<path d="M548.094 172.287C547.856 172.286 564.313 171.533 565.729 171.793C567.145 172.052 574.014 174.68 574.014 174.68C574.014 174.68 579.589 177.27 579.209 180.576C579.036 182.08 578.587 184.802 578.587 184.802C578.587 184.802 580.176 187.05 579.609 187.532C579.041 188.014 577.88 187.922 577.249 187.686C576.619 187.45 565.975 183.353 563.899 183.614C561.823 183.874 562.947 185.592 563.361 186.215C563.776 186.838 567.703 189.965 568.746 191.741C569.736 193.425 568.78 194.354 568.004 194.079C567.229 193.803 559.307 190.125 557.548 188.816C555.789 187.507 555.64 185.282 552.589 183.811C549.538 182.339 546.975 181.957 546.975 181.957L548.094 172.287Z" fill="#AE7461"/>
<path d="M569.925 179.464C569.839 179.684 572.182 180.45 574.759 181.843C577.339 183.267 578.798 185.245 578.953 185.122C579.12 185.055 577.825 182.772 575.091 181.256C573.754 180.502 572.448 180.057 571.504 179.771C570.557 179.492 569.955 179.377 569.925 179.464Z" fill="#6F4439"/>
<path d="M572.985 177.1C572.921 177.284 574.388 177.928 576.09 178.894C577.798 179.849 579.098 180.781 579.224 180.634C579.345 180.502 578.195 179.299 576.421 178.306C574.654 177.305 573.037 176.93 572.985 177.1Z" fill="#6F4439"/>
<path d="M390.793 299.583C389.124 301.042 376.153 327.935 385.448 343.711L377.659 394.014C377.659 394.014 422.206 385.641 431.144 377.736L437.446 349.681L390.793 299.583Z" fill="#C53F3F"/>
<g opacity="0.3">
<path d="M388.918 329.123L410.708 386.24C410.708 386.24 427.41 382.199 431.144 377.736L436.436 354.176L388.918 329.123Z" fill="black"/>
</g>
<path d="M392.214 349.737C392.341 349.601 390.871 348.024 388.931 346.216C386.991 344.408 385.315 343.052 385.188 343.189C385.061 343.325 386.531 344.901 388.471 346.71C390.411 348.518 392.087 349.874 392.214 349.737Z" fill="#263238"/>
<path d="M390.275 353.459C390.404 353.325 389.171 351.932 387.521 350.349C385.871 348.765 384.429 347.59 384.3 347.725C384.171 347.859 385.404 349.252 387.054 350.836C388.704 352.419 390.146 353.594 390.275 353.459Z" fill="#263238"/>
<path d="M468.286 308.313C468.286 308.313 480.551 309.54 502.857 313.283C527.442 317.408 533.792 318.609 540.664 328.3C547.537 337.991 540.796 350.14 534.569 357.732C528.343 365.323 487.554 412.375 482.217 424.623L466.353 412.567C466.353 412.567 478.71 383.13 486.507 368.837C494.304 354.545 498.108 349.585 498.922 349.414C499.736 349.244 459.609 352.424 459.609 352.424L468.286 308.313Z" fill="#AE7461"/>
<path d="M463.335 412.746L467.598 409.631L475.289 392.078L497.53 403.568L480.191 427.369L465.491 424.954L463.335 412.746Z" fill="#455A64"/>
<path d="M504.416 451.866C504.416 451.866 494.966 451.745 487.695 448.821C480.424 445.897 470.211 439.887 466.439 437.724C462.667 435.561 450.436 433.354 450.872 428.968C451.309 424.581 464.248 411.829 464.248 411.829C464.248 411.829 464.048 416.775 468.201 417.875C472.354 418.976 480.985 419.285 480.985 419.285C480.985 419.285 486.088 414.981 488.512 415.497C490.935 416.013 488.093 422.468 488.093 422.468C488.093 422.468 491.378 432.282 494.797 435.234C498.215 438.187 497.991 439.444 502.562 440.978C507.134 442.512 508.824 444.881 508.824 444.881C508.824 444.881 509.779 449.301 508.282 450.326C506.784 451.351 504.416 451.866 504.416 451.866Z" fill="#263238"/>
<path d="M508.362 450.265C506.935 451.494 504.409 451.932 504.409 451.932C504.409 451.932 494.96 451.81 487.688 448.887C480.417 445.963 470.204 439.953 466.432 437.79C462.66 435.627 450.429 433.42 450.866 429.033C450.974 427.83 451.394 426.691 452.117 425.616C452.117 425.616 463.074 432.514 468.877 434.188C474.68 435.862 485.731 443.691 492.266 445.645C498.801 447.597 506.628 448.268 506.628 448.268L509.123 447.771C509.087 448.799 509.21 449.556 508.362 450.265Z" fill="#455A64"/>
<path d="M493.684 433.656C493.572 433.613 493.187 434.648 492.231 435.547C491.291 436.464 490.241 436.803 490.279 436.917C490.284 437.021 491.479 436.833 492.508 435.836C493.548 434.851 493.787 433.665 493.684 433.656Z" fill="white"/>
<path d="M490.95 429.166C490.841 429.112 490.294 430.321 489.054 431.298C487.831 432.297 486.532 432.569 486.561 432.687C486.553 432.789 487.984 432.682 489.304 431.61C490.636 430.554 491.052 429.181 490.95 429.166Z" fill="white"/>
<path d="M489.255 425.161C489.173 425.077 488.364 425.778 487.233 426.426C486.107 427.083 485.096 427.436 485.128 427.548C485.15 427.65 486.254 427.459 487.434 426.772C488.617 426.093 489.333 425.23 489.255 425.161Z" fill="white"/>
<path d="M464.011 426.868C463.989 426.917 464.539 427.223 465.459 427.649C466.379 428.076 467.674 428.616 469.132 429.135C470.591 429.653 471.936 430.051 472.919 430.3C473.902 430.55 474.521 430.66 474.535 430.608C474.565 430.496 472.166 429.792 469.266 428.758C466.364 427.731 464.059 426.763 464.011 426.868Z" fill="white"/>
<path d="M394.801 286.828C392.975 288.518 380.158 322.243 393.389 337.957C406.62 353.671 457.144 356.49 457.144 356.49L479.658 303.74C479.658 303.74 455.353 301.176 454.945 300.477C454.536 299.778 448.319 273.996 448.319 273.996C448.513 273.257 394.484 280.172 394.853 280.269L394.801 286.828Z" fill="#C53F3F"/>
<path d="M418.933 296.604C418.932 296.65 419.444 296.701 420.368 296.752C421.438 296.805 422.743 296.87 424.279 296.946C427.581 297.108 432.138 297.372 437.149 297.891C442.161 298.414 446.668 299.122 449.914 299.729C451.423 300.02 452.706 300.267 453.756 300.469C454.664 300.648 455.172 300.725 455.183 300.68C455.195 300.635 454.708 300.471 453.817 300.214C452.928 299.952 451.627 299.624 450.009 299.262C446.775 298.532 442.253 297.746 437.219 297.22C432.185 296.698 427.606 296.509 424.294 296.469C422.638 296.449 421.298 296.458 420.371 296.489C419.445 296.519 418.933 296.557 418.933 296.604Z" fill="#263238"/>
<path d="M398.161 284.962C398.161 284.962 385.518 310.428 399.752 323.498C413.985 336.569 462.454 344.049 462.454 344.049L473.31 318.614C473.31 318.614 413.062 306.495 410.765 302.558C408.468 298.62 415.564 279.431 414.982 279.598C414.982 279.598 402.634 278.939 398.528 279.981C397.535 280.233 398.161 284.962 398.161 284.962Z" fill="#E0E0E0"/>
<path d="M441.063 328.307C441.091 328.344 441.5 328.077 442.214 327.563C442.933 327.053 443.938 326.268 445.148 325.26C447.569 323.246 450.758 320.26 453.915 316.627C457.068 312.986 459.574 309.408 461.226 306.726C462.054 305.386 462.689 304.281 463.092 303.498C463.5 302.717 463.706 302.276 463.666 302.253C463.573 302.2 462.573 303.867 460.825 306.467C459.08 309.068 456.534 312.573 453.406 316.184C450.273 319.79 447.163 322.804 444.835 324.9C442.507 326.998 440.997 328.222 441.063 328.307Z" fill="#263238"/>
<path d="M447.625 328.844C447.635 328.889 448.05 328.824 448.799 328.666C449.554 328.536 450.611 328.195 451.89 327.698C454.431 326.672 457.683 324.484 460.324 321.215C462.972 317.963 464.765 314.63 466.08 312.261C467.377 309.876 468.165 308.396 468.084 308.346C468.006 308.298 467.069 309.698 465.667 312.023C464.247 314.331 462.397 317.603 459.804 320.785C457.218 323.981 454.133 326.143 451.697 327.262C449.252 328.374 447.59 328.705 447.625 328.844Z" fill="#263238"/>
<path d="M394.8 286.828C394.808 286.831 394.817 286.697 394.827 286.424C394.836 286.127 394.847 285.723 394.862 285.195C394.882 284.07 394.912 282.431 394.952 280.27L394.88 280.174C395.036 280.3 394.813 280.416 394.894 280.356H394.895L394.899 280.355L394.923 280.35L394.973 280.341L395.079 280.324L395.295 280.292C395.44 280.272 395.589 280.251 395.739 280.23C396.041 280.19 396.353 280.148 396.674 280.106C397.317 280.023 397.998 279.935 398.715 279.843C400.154 279.661 401.74 279.462 403.466 279.244C406.929 278.818 410.952 278.322 415.482 277.764C424.485 276.704 435.496 275.407 448.055 273.928L448.054 274.06C449.835 281.447 451.748 289.468 453.913 297.958L454.34 299.556C454.424 299.835 454.468 300.065 454.588 300.388L454.671 300.616C454.722 300.72 454.967 300.866 454.997 300.856C455.155 300.915 455.298 300.953 455.436 300.985C456.55 301.241 457.65 301.397 458.768 301.567C461 301.893 463.263 302.182 465.554 302.463C470.138 303.024 474.832 303.553 479.623 304.067L479.356 303.611C475.236 313.256 470.893 323.425 466.43 333.874C463.144 341.577 459.924 349.127 456.838 356.359L457.163 356.158C448.597 355.586 440.305 354.552 432.418 353.187C424.537 351.797 417.033 350.05 410.181 347.617C406.761 346.394 403.505 344.992 400.542 343.291C397.58 341.603 394.914 339.557 393 337.021C391.054 334.507 389.802 331.645 389.029 328.807C388.242 325.964 387.884 323.141 387.75 320.448C387.509 315.053 388.08 310.179 388.829 305.986C389.58 301.785 390.525 298.239 391.399 295.385C392.27 292.528 393.101 290.37 393.71 288.933C394.311 287.488 394.8 286.828 394.8 286.828C394.8 286.828 394.63 286.955 394.426 287.304C394.205 287.641 393.934 288.174 393.599 288.883C392.951 290.31 392.081 292.461 391.173 295.314C390.261 298.165 389.279 301.712 388.492 305.924C387.707 310.13 387.099 315.023 387.313 320.469C387.433 323.186 387.781 326.044 388.566 328.935C389.338 331.821 390.602 334.749 392.587 337.336C394.548 339.953 397.27 342.052 400.264 343.771C403.262 345.505 406.543 346.927 409.983 348.168C416.876 350.636 424.405 352.404 432.308 353.813C440.221 355.195 448.518 356.24 457.126 356.822L457.358 356.837L457.45 356.62C460.538 349.389 463.762 341.84 467.05 334.139C471.508 323.688 475.846 313.516 479.96 303.869L480.135 303.46L479.692 303.413C474.905 302.905 470.211 302.382 465.632 301.83C463.343 301.552 461.082 301.268 458.859 300.947C457.753 300.781 456.637 300.623 455.586 300.383C455.454 300.353 455.329 300.319 455.226 300.28C455.198 300.273 455.16 300.256 455.194 300.271C455.189 300.287 455.237 300.262 455.183 300.321C455.143 300.359 455.098 300.392 455.049 300.42C455.094 300.394 454.845 300.537 455.128 300.368C455.294 300.267 455.172 300.334 455.208 300.308L455.156 300.144C455.082 299.949 455.008 299.637 454.934 299.389L454.507 297.803C452.326 289.33 450.39 281.31 448.585 273.932L448.584 274.063C448.623 273.975 448.538 273.792 448.495 273.776C448.47 273.755 448.442 273.737 448.412 273.723C448.346 273.694 448.353 273.704 448.32 273.693C448.269 273.681 448.249 273.683 448.211 273.677L448.043 273.669L447.731 273.672L447.128 273.701L445.943 273.789C445.16 273.862 444.383 273.935 443.612 274.007C442.075 274.172 440.563 274.334 439.077 274.493C436.111 274.84 433.249 275.174 430.5 275.496C425.01 276.18 419.969 276.809 415.433 277.374C410.907 277.967 406.887 278.494 403.428 278.947C401.704 279.183 400.12 279.399 398.682 279.595C397.966 279.697 397.286 279.793 396.643 279.884C396.322 279.931 396.011 279.977 395.709 280.022L395.264 280.091L395.047 280.126L394.938 280.146L394.883 280.156L394.854 280.163L394.832 280.169L394.821 280.173C394.896 280.113 394.671 280.231 394.826 280.363L394.755 280.268C394.76 282.416 394.763 284.046 394.766 285.164C394.772 285.697 394.777 286.105 394.78 286.405C394.786 286.683 394.792 286.824 394.8 286.828Z" fill="#263238"/>
<path d="M524.845 339.85C524.841 339.803 524.429 339.797 523.682 339.825C522.935 339.846 521.858 339.943 520.535 340.121C517.888 340.472 514.255 341.264 510.429 342.703C506.606 344.152 503.356 345.959 501.138 347.445C500.026 348.186 499.154 348.826 498.58 349.303C498.001 349.776 497.696 350.053 497.724 350.091C497.791 350.179 499.126 349.216 501.392 347.849C503.656 346.479 506.895 344.765 510.668 343.335C514.443 341.914 518.006 341.06 520.61 340.592C523.215 340.12 524.853 339.96 524.845 339.85Z" fill="#6F4439"/>
<path d="M415.092 301.22C415.07 301.142 413.679 301.446 411.507 302.202C409.337 302.955 406.403 304.21 403.359 305.966C400.318 307.729 397.768 309.648 396.033 311.153C394.294 312.658 393.337 313.712 393.394 313.771C393.465 313.847 394.535 312.92 396.335 311.522C398.132 310.124 400.693 308.292 403.697 306.551C406.703 304.816 409.568 303.509 411.677 302.648C413.786 301.785 415.123 301.32 415.092 301.22Z" fill="#263238"/>
<path d="M416.006 300.697C416.001 300.611 415.011 300.576 413.418 300.712C411.826 300.846 409.635 301.182 407.274 301.811C404.914 302.444 402.847 303.248 401.4 303.925C399.952 304.602 399.112 305.127 399.151 305.204C399.24 305.391 402.789 303.694 407.449 302.463C412.099 301.205 416.022 300.904 416.006 300.697Z" fill="#263238"/>
<path d="M352.416 126.033C352.287 124.986 352.276 123.91 351.928 122.913C351.581 121.917 350.796 120.982 349.751 120.839C348.705 120.696 347.558 121.697 347.847 122.711C345.354 120.038 346.038 115.474 343.636 112.718C342.093 110.947 339.531 110.325 337.201 110.625C333.462 111.107 330.108 113.857 328.902 117.429C327.853 120.535 328.477 124.13 330.421 126.758C328.794 125.097 326.561 123.972 324.336 124.461C321.215 125.148 319.477 128.841 320.011 131.991C320.545 135.141 322.767 137.742 325.194 139.821C332.265 145.875 341.896 148.835 351.147 147.798L357.671 135.277C354.794 133.05 352.859 129.645 352.416 126.033Z" fill="#263238"/>
<path d="M350.857 138.153C353.751 128.391 359.981 120.854 369.307 116.754C374.57 114.441 377.225 114.62 381.473 114.046C385.722 113.471 390.025 114.07 393.658 116.342C397.974 119.041 402.05 122.38 404.522 126.828C407.06 131.397 408.951 136.212 410.289 141.264C411.917 147.409 411.716 153.168 410.524 158.257L401.124 163.648C394.463 166.717 390.418 175.984 383.187 177.209C375.957 178.434 366.967 175.223 361.018 170.94C352.753 164.989 347.962 147.915 350.857 138.153Z" fill="#263238"/>
<path d="M403.748 130.401C400.424 122.669 389.369 114.882 379.767 118.875L375.298 120.17L361.709 133.499C359.404 134.608 358.33 137.296 359.237 139.686L382.94 187.91L410.104 196.992L406.659 180.978L405.062 176.134C405.062 176.134 415.527 170.486 412.913 156.553C411.612 149.625 407.442 138.991 403.748 130.401Z" fill="#AE7461"/>
<path d="M392.476 161.62C392.281 160.91 392.406 160.157 392.711 159.547C393.323 158.328 394.686 157.662 396.005 157.937C397.324 158.213 398.518 159.413 398.89 160.838C398.648 161.867 397.993 162.768 397.056 163.261C396.911 163.337 396.761 163.406 396.608 163.466C395.862 163.757 395.008 163.823 394.217 163.517C393.426 163.21 392.716 162.497 392.476 161.62Z" fill="#6F4439"/>
<path d="M404.888 142.886C405.239 143.769 404.781 144.792 403.866 145.175C402.953 145.557 401.927 145.155 401.576 144.273C401.226 143.392 401.684 142.367 402.597 141.985C403.512 141.601 404.538 142.005 404.888 142.886Z" fill="#263238"/>
<path d="M402.637 135.938C402.506 136.233 400.886 135.743 399.066 136.398C397.239 137.026 396.237 138.439 395.96 138.287C395.827 138.223 395.899 137.749 396.329 137.118C396.752 136.492 397.583 135.733 398.719 135.332C399.855 134.934 400.959 135.011 401.66 135.242C402.373 135.471 402.705 135.802 402.637 135.938Z" fill="#263238"/>
<path d="M397.062 154.692C397.016 154.591 398.079 153.992 399.829 153.102C400.277 152.889 400.684 152.639 400.65 152.294C400.639 151.919 400.266 151.488 399.847 151.028C399.008 150.059 398.129 149.044 397.208 147.98C393.499 143.625 390.636 139.976 390.813 139.829C390.99 139.681 394.14 143.091 397.85 147.447C398.753 148.525 399.616 149.552 400.439 150.536C400.803 151.001 401.32 151.492 401.331 152.273C401.33 152.666 401.079 153.039 400.809 153.226C400.543 153.423 400.284 153.521 400.059 153.617C398.248 154.375 397.106 154.793 397.062 154.692Z" fill="#263238"/>
<path d="M405.076 176.111C405.076 176.111 396.403 179.852 385.72 177.709C385.72 177.709 393.529 185.826 406.296 179.877L405.076 176.111Z" fill="#6F4439"/>
<path d="M392.152 157.863C392.442 157.741 393.151 159.714 395.344 160.512C397.535 161.316 399.563 160.342 399.678 160.612C399.749 160.726 399.345 161.163 398.465 161.505C397.603 161.846 396.229 162.021 394.887 161.533C393.547 161.042 392.694 160.053 392.337 159.267C391.967 158.468 392.012 157.9 392.152 157.863Z" fill="#263238"/>
<path d="M399.412 129.964C399.265 130.517 397.764 130.718 396.183 131.435C394.579 132.101 393.405 133.063 392.904 132.79C392.675 132.652 392.698 132.155 393.103 131.507C393.501 130.863 394.316 130.108 395.41 129.632C396.505 129.157 397.609 129.078 398.347 129.229C399.094 129.377 399.468 129.701 399.412 129.964Z" fill="#263238"/>
<path d="M385.271 150.123C385.592 151.016 386.613 151.48 387.553 151.161C388.49 150.844 388.993 149.864 388.672 148.971C388.351 148.078 387.329 147.613 386.391 147.93C385.452 148.248 384.95 149.23 385.271 150.123Z" fill="#263238"/>
<path d="M378.256 145.369C378.55 145.504 379.44 144.064 381.238 143.35C383.023 142.613 384.711 143.009 384.817 142.711C384.874 142.576 384.506 142.268 383.766 142.079C383.035 141.89 381.909 141.871 380.793 142.322C379.677 142.776 378.9 143.563 378.528 144.2C378.145 144.844 378.115 145.312 378.256 145.369Z" fill="#263238"/>
<path d="M376.931 139.221C377.447 139.487 378.664 138.511 380.321 137.825C381.958 137.087 383.507 136.869 383.662 136.313C383.721 136.049 383.336 135.73 382.565 135.59C381.804 135.449 380.662 135.541 379.53 136.029C378.399 136.519 377.554 137.284 377.142 137.934C376.721 138.588 376.695 139.085 376.931 139.221Z" fill="#263238"/>
<path d="M370.558 160.412C370.205 159.431 368.242 157.522 367.218 157.717C364.482 158.239 359.884 160.114 362.19 166.706C365.343 175.716 373.747 170.693 373.673 170.429C373.615 170.222 371.778 163.8 370.558 160.412Z" fill="#AE7461"/>
<path d="M370.033 168.007C369.984 167.992 369.914 168.172 369.692 168.386C369.474 168.595 369.057 168.832 368.525 168.821C367.45 168.804 366.119 167.574 365.508 165.964C365.197 165.152 365.096 164.311 365.161 163.563C365.206 162.807 365.471 162.198 365.922 161.945C366.36 161.668 366.8 161.837 366.999 162.051C367.208 162.261 367.214 162.461 367.267 162.459C367.3 162.473 367.408 162.241 367.205 161.895C367.105 161.728 366.925 161.552 366.652 161.454C366.375 161.354 366.025 161.375 365.703 161.528C365.025 161.82 364.622 162.678 364.551 163.499C364.443 164.337 364.537 165.289 364.885 166.201C365.578 167.997 367.102 169.37 368.538 169.291C369.23 169.234 369.693 168.858 369.891 168.55C370.093 168.23 370.07 168.012 370.033 168.007Z" fill="#6F4439"/>
<path d="M366.869 157.892L370.077 159.269C375.844 145.993 384.985 114.978 384.512 116.796C384.512 116.796 376.762 116.856 370.103 121.09C363.443 125.323 351.346 134.624 355.109 142.988C358.871 151.352 366.869 157.892 366.869 157.892Z" fill="#263238"/>
<path d="M361.746 121.505C361.717 121.468 361.298 121.77 360.561 122.35C360.186 122.634 359.742 122.999 359.273 123.473C358.798 123.941 358.222 124.444 357.689 125.095C356.548 126.331 355.358 127.956 354.215 129.867C353.114 131.802 352.086 134.038 351.32 136.496C350.587 138.964 350.195 141.395 350.031 143.615C349.915 145.839 349.999 147.851 350.258 149.514C350.338 150.352 350.536 151.09 350.67 151.743C350.795 152.398 350.961 152.948 351.114 153.393C351.403 154.286 351.583 154.77 351.627 154.755C351.763 154.717 351.091 152.749 350.731 149.456C350.537 147.813 350.505 145.837 350.651 143.659C350.846 141.485 351.248 139.11 351.966 136.692C352.716 134.286 353.705 132.09 354.755 130.176C355.846 128.286 356.973 126.663 358.05 125.407C360.182 122.872 361.837 121.612 361.746 121.505Z" fill="#455A64"/>
<path d="M452.557 250.64C452.557 250.64 450.62 223.958 447.579 211.25C444.538 198.542 424.164 175.941 424.164 175.941L408.247 180.665L410.104 196.993L383.595 188.628L369.204 195.659L375.188 242.123L384.483 260.814C383.033 274.001 378.983 283.859 387.756 288.745C387.494 283.935 388.856 280.845 393.65 280.377C419.676 277.836 438.705 282.98 452.293 287.99C457.837 290.034 453.396 268.477 453.396 268.477C453.396 268.477 455.235 266.081 457.407 263.351C459.467 260.762 452.592 250.777 452.557 250.64Z" fill="#C53F3F"/>
<g opacity="0.3">
<path d="M453.175 268.293C437.678 266.745 421.563 265.268 406.928 270.593C420.713 271.587 434.595 271.211 448.305 269.472" fill="black"/>
</g>
<path d="M383.942 259.727C383.942 259.727 388.297 259.918 389.973 248.567C391.648 237.217 371.949 194.317 371.812 194.384C371.675 194.451 369.204 195.658 369.204 195.658L374.906 241.556L383.942 259.727Z" fill="#E0E0E0"/>
<path d="M447.622 269.575C447.619 269.553 447.332 269.566 446.788 269.61C446.178 269.665 445.388 269.738 444.408 269.827C442.34 270.021 439.341 270.283 435.616 270.511C428.171 270.98 417.8 271.199 406.27 270.36L406.36 271.013C407.146 270.751 407.987 270.471 408.835 270.189C411.731 269.311 414.621 268.669 417.441 268.213C420.267 267.798 423.013 267.518 425.639 267.39C430.89 267.121 435.637 267.308 439.613 267.52C443.591 267.747 446.807 268.018 449.031 268.188C450.089 268.266 450.939 268.328 451.593 268.376C452.18 268.411 452.489 268.419 452.491 268.396C452.494 268.373 452.189 268.32 451.607 268.24C450.956 268.16 450.109 268.056 449.056 267.927C446.839 267.676 443.627 267.332 439.643 267.044C435.661 266.77 430.898 266.532 425.609 266.769C422.964 266.88 420.194 267.15 417.34 267.56C414.491 268.011 411.567 268.656 408.635 269.544C407.777 269.83 406.925 270.115 406.13 270.38L404.537 270.911L406.221 271.032C417.79 271.863 428.196 271.564 435.648 270.973C439.377 270.684 442.374 270.352 444.436 270.079C445.468 269.951 446.264 269.823 446.804 269.74C447.344 269.654 447.625 269.598 447.622 269.575Z" fill="#263238"/>
<path d="M381.631 189.588L413.228 202.021L409.196 180.306L406.659 180.978L410.104 196.993L383.057 187.679L381.631 189.588Z" fill="#E0E0E0"/>
<path d="M420.694 176.971L443.705 202.212C440.547 195.568 433.309 185.715 425.38 175.319L420.694 176.971Z" fill="#E0E0E0"/>
<path d="M452.293 287.99C452.309 287.946 451.545 287.628 450.151 287.089C448.755 286.555 446.723 285.811 444.184 284.971C439.113 283.291 431.964 281.266 423.861 280.131C415.755 279.005 408.313 278.992 402.979 279.395C400.311 279.615 398.157 279.828 396.68 280.071C395.199 280.283 394.385 280.422 394.391 280.469C394.398 280.515 395.224 280.463 396.71 280.332C398.194 280.169 400.347 280.03 403.007 279.872C408.327 279.592 415.714 279.681 423.767 280.799C431.817 281.927 438.944 283.866 444.04 285.425C446.59 286.205 448.642 286.879 450.064 287.336C451.484 287.799 452.277 288.034 452.293 287.99Z" fill="#263238"/>
<path d="M432.559 220.332L433.671 224.28L430.198 249.409L423.58 251.273L427.001 227.255L418.277 229.713L419.485 234L414.07 235.526L411.464 226.275L432.559 220.332Z" fill="#E0E0E0"/>
<path d="M441.439 234.618C441.405 234.435 434.717 235.546 426.503 237.1C418.287 238.654 411.656 240.062 411.691 240.245C411.726 240.428 418.412 239.317 426.629 237.763C434.842 236.209 441.474 234.801 441.439 234.618Z" fill="#263238"/>
<path d="M315.789 111.95C332.3 107.355 341.96 90.2455 337.366 73.7345C332.771 57.2234 315.661 47.5633 299.15 52.1581C282.639 56.7528 272.979 73.8624 277.574 90.3735C282.169 106.885 299.278 116.545 315.789 111.95Z" fill="#C53F3F"/>
<path d="M286.437 73.1096C285.401 72.91 284.352 72.8989 283.362 73.064C283.3 73.0743 283.238 73.0813 283.177 73.0942L282.995 73.137C282.874 73.1656 282.753 73.1942 282.633 73.2228C282.396 73.2918 282.164 73.3706 281.935 73.4499C281.483 73.6238 281.06 73.8403 280.664 74.0773C280.27 74.3183 279.91 74.5891 279.573 74.8691C279.244 75.1574 278.935 75.4523 278.659 75.7621C277.623 76.9173 276.95 78.1621 276.488 79.2926C276.417 80.1031 276.379 80.9217 276.373 81.7475C276.58 81.1618 276.827 80.5221 277.14 79.8459C277.399 79.2923 277.699 78.7149 278.072 78.1433C278.447 77.5729 278.883 76.9968 279.408 76.4641C279.668 76.195 279.954 75.9436 280.255 75.6993C280.562 75.4638 280.885 75.2386 281.232 75.0422C281.581 74.8502 281.948 74.6772 282.335 74.5422C282.531 74.4821 282.728 74.4214 282.93 74.3686L283.238 74.3056L283.392 74.2733C283.444 74.2636 283.498 74.26 283.55 74.2527C284.392 74.1378 285.288 74.1663 286.187 74.3612C286.292 74.3842 286.396 74.4095 286.5 74.4361C286.645 74.0319 286.794 73.628 286.951 73.2248C286.78 73.1828 286.609 73.1433 286.437 73.1096Z" fill="#263238"/>
<path d="M288.846 75.3651C290.574 76.2956 292.066 77.8118 293.341 79.5962C294.62 81.3842 295.691 83.4512 296.802 85.5796C297.907 87.7058 298.962 89.8056 300.03 91.8162C300.565 92.8213 301.099 93.8062 301.645 94.7601C301.913 95.2391 302.193 95.7062 302.464 96.1708C302.746 96.6304 303.016 97.0887 303.3 97.5317C305.525 101.106 307.991 104.067 310.367 106.213C312.737 108.375 315 109.707 316.619 110.45C317.02 110.647 317.392 110.786 317.711 110.911C317.872 110.972 318.019 111.031 318.156 111.077C318.183 111.086 318.319 111.119 318.345 111.127C318.491 111.073 318.632 111.021 318.776 110.965C318.768 110.96 318.652 110.926 318.644 110.921L318.3 110.744C318.174 110.678 318.039 110.599 317.891 110.519C317.596 110.355 317.251 110.18 316.88 109.95C315.379 109.071 313.278 107.654 311.072 105.467C308.857 103.29 306.557 100.369 304.438 96.8291C304.167 96.391 303.909 95.9358 303.64 95.4812C303.381 95.02 303.112 94.558 302.853 94.0818C302.328 93.1355 301.811 92.1559 301.289 91.1547C300.255 89.1377 299.185 87.0491 298.089 84.91C296.975 82.7777 295.873 80.661 294.495 78.7648C294.148 78.2936 293.794 77.832 293.411 77.3972C293.226 77.1754 293.023 76.9681 292.829 76.7563C292.625 76.5532 292.429 76.3448 292.216 76.1537C291.802 75.76 291.359 75.4023 290.902 75.0667C290.67 74.9063 290.442 74.742 290.201 74.6005C290.081 74.5287 289.965 74.4511 289.843 74.3852L289.478 74.1865C289.101 73.9857 288.715 73.8101 288.323 73.6575C288.163 74.0676 288.011 74.4783 287.863 74.8894C288.195 75.0277 288.524 75.1859 288.846 75.3651Z" fill="#263238"/>
<path d="M335.402 95.1449C335.308 95.0132 335.207 94.8714 335.1 94.7198C334.99 94.5696 334.868 94.4139 334.741 94.2472C334.483 93.9164 334.197 93.5487 333.883 93.1461C333.563 92.7489 333.203 92.327 332.821 91.8701C332.442 91.4093 332.009 90.9413 331.56 90.436C331.114 89.9273 330.616 89.4139 330.099 88.8692C329.588 88.3188 329.019 87.7751 328.44 87.1942C328.152 86.902 327.843 86.6208 327.534 86.3272C327.222 86.0358 326.909 85.7355 326.583 85.4373C326.253 85.1433 325.918 84.8441 325.577 84.5402C325.406 84.389 325.235 84.2338 325.06 84.0826C324.882 83.9329 324.704 83.7819 324.524 83.6298C324.164 83.327 323.802 83.0151 323.427 82.708C323.049 82.4051 322.666 82.0981 322.278 81.7873C321.893 81.4724 321.488 81.174 321.084 80.8646C320.677 80.5581 320.271 80.2407 319.846 79.941C319.423 79.637 318.996 79.3299 318.565 79.0197C318.126 78.7205 317.683 78.4185 317.236 78.1136C315.436 76.9104 313.529 75.7308 311.527 74.6059C309.52 73.4904 307.515 72.4835 305.546 71.5815C305.053 71.3604 304.563 71.1413 304.078 70.9244C303.588 70.7195 303.102 70.5168 302.622 70.3159C302.143 70.1105 301.66 69.9311 301.186 69.7455C300.71 69.5634 300.244 69.3742 299.774 69.2116C299.306 69.044 298.844 68.8787 298.387 68.7154C297.93 68.5575 297.474 68.4124 297.027 68.2641C296.803 68.1907 296.581 68.118 296.361 68.0455C296.14 67.9752 295.919 67.9114 295.7 67.8451L294.409 67.4584C293.984 67.337 293.564 67.2272 293.152 67.1147C292.74 67.0055 292.339 66.8891 291.939 66.7971C291.857 66.7777 291.776 66.758 291.695 66.7383L291.674 66.7727C291.593 66.9164 291.512 67.0605 291.43 67.2049L291.137 67.7233C291.307 67.7714 291.477 67.8196 291.65 67.8671C292.041 67.9718 292.434 68.1004 292.836 68.2214C293.238 68.3454 293.649 68.4664 294.064 68.5983C294.478 68.7349 294.898 68.8738 295.326 69.0147C295.539 69.086 295.756 69.1543 295.972 69.2291C296.187 69.3056 296.404 69.3827 296.623 69.4605C297.059 69.617 297.505 69.7698 297.952 69.9347C298.398 70.1042 298.85 70.2761 299.308 70.45C299.767 70.6185 300.223 70.8128 300.688 70.9995C301.152 71.1896 301.625 71.373 302.093 71.5817C302.563 71.785 303.039 71.9904 303.518 72.198C303.994 72.4162 304.473 72.6366 304.957 72.859C306.885 73.7637 308.852 74.7626 310.827 75.8597C312.795 76.966 314.676 78.1175 316.456 79.2852C316.899 79.5808 317.338 79.8736 317.773 80.1636C318.201 80.4635 318.625 80.7605 319.045 81.0545C319.468 81.3437 319.871 81.6502 320.276 81.9455C320.679 82.2437 321.084 82.5304 321.468 82.8334C321.856 83.1318 322.239 83.4267 322.617 83.7176C322.992 84.0123 323.355 84.3113 323.717 84.6013C323.898 84.7468 324.078 84.891 324.256 85.0345C324.433 85.1791 324.604 85.3276 324.777 85.4722C325.121 85.7622 325.46 86.0477 325.793 86.3285C326.122 86.6129 326.441 86.8994 326.757 87.1765C327.071 87.4561 327.386 87.723 327.68 88.0009C328.272 88.553 328.855 89.0676 329.382 89.5885C329.916 90.1038 330.432 90.5875 330.898 91.0662C331.368 91.5416 331.823 91.9797 332.226 92.4104C332.636 92.8359 333.017 93.2319 333.368 93.5965C333.714 93.9661 334.029 94.3039 334.314 94.6077L334.72 95.0354L335.072 95.4159C335.146 95.4961 335.266 95.6553 335.333 95.7264C335.397 95.5962 335.477 95.4312 335.539 95.2999C335.515 95.2649 335.427 95.1813 335.402 95.1449Z" fill="#263238"/>
<path d="M290.264 66.3959C290.057 66.348 289.851 66.3024 289.648 66.2614C288.919 66.1063 288.227 65.9517 287.565 65.838C286.905 65.7196 286.285 65.5964 285.699 65.5149C285.114 65.4281 284.57 65.3426 284.068 65.278C283.565 65.2215 283.106 65.17 282.692 65.1237C282.486 65.1025 282.291 65.0804 282.107 65.0655L281.591 65.0311L281.501 65.0259C281.421 65.1492 281.341 65.2727 281.263 65.3974C281.349 65.4158 281.438 65.4345 281.534 65.4541L282.038 65.5544C282.217 65.5925 282.408 65.6333 282.61 65.6765C283.015 65.7595 283.464 65.8519 283.956 65.953C284.447 66.0609 284.979 66.1782 285.551 66.304C286.125 66.4218 286.731 66.58 287.377 66.7314C288.024 66.8783 288.701 67.0642 289.413 67.2487C289.519 67.275 289.626 67.304 289.732 67.3321L290.207 66.4958L290.264 66.3959Z" fill="#263238"/>
<path d="M295.7 60.9367C295.835 60.9758 295.969 61.0143 296.106 61.0507C296.432 61.1386 296.765 61.211 297.105 61.2936C297.445 61.3688 297.794 61.4371 298.148 61.5072C299.569 61.7668 301.102 61.9403 302.714 62.0302C304.326 62.1163 306.017 62.1265 307.758 62.0877C309.5 62.0534 311.295 61.9714 313.122 61.9191C314.036 61.8922 314.937 61.8721 315.823 61.8695C316.709 61.8642 317.579 61.875 318.432 61.9086C320.139 61.9676 321.772 62.1266 323.307 62.3799C324.841 62.6434 326.267 63.0101 327.564 63.4758C328.858 63.9453 330.018 64.5029 331.025 65.0965C332.033 65.691 332.892 66.3176 333.597 66.9258C333.773 67.0776 333.935 67.2337 334.096 67.3786C334.175 67.4528 334.257 67.5211 334.33 67.5958L334.543 67.8147C334.682 67.9585 334.821 68.0915 334.944 68.2265L335.289 68.6178C335.469 68.8103 335.613 69.0004 335.748 69.1693C335.356 68.3082 334.925 67.4695 334.459 66.6539C334.361 66.547 334.262 66.4388 334.156 66.3313C333.467 65.632 332.605 64.9098 331.576 64.2237C330.546 63.5384 329.346 62.8934 327.997 62.3469C326.648 61.8042 325.145 61.37 323.548 61.058C321.948 60.7553 320.25 60.5619 318.495 60.4815C317.617 60.4369 316.724 60.4186 315.821 60.4189C314.917 60.4166 314.003 60.4345 313.08 60.4616C311.233 60.5146 309.443 60.6066 307.721 60.6597C305.998 60.7175 304.343 60.7354 302.773 60.6879C301.204 60.6368 299.721 60.513 298.347 60.3144C297.7 60.2156 297.075 60.1073 296.482 59.9805L296.322 60.1728C296.114 60.4235 295.907 60.6786 295.7 60.9367Z" fill="#263238"/>
<path d="M294.628 59.4678C294.092 59.2736 293.604 59.0445 293.18 58.7767C292.759 58.5096 292.384 58.2067 292.102 57.8856C291.525 57.2339 291.229 56.4996 291.112 55.8915C291.094 55.7969 291.082 55.7062 291.073 55.6174C290.897 55.7267 290.722 55.8378 290.548 55.9503L290.548 55.9564C290.591 56.6753 290.843 57.5613 291.47 58.4005C292.101 59.2386 293.085 59.9354 294.249 60.4265C294.285 60.4419 294.322 60.4554 294.358 60.4705C294.591 60.1803 294.826 59.8948 295.062 59.6141C294.914 59.5675 294.769 59.519 294.628 59.4678Z" fill="#263238"/>
<path d="M291.674 66.7729L291.695 66.7384L291.932 66.3517C293.107 64.4031 294.379 62.595 295.7 60.9368C295.906 60.6787 296.113 60.4236 296.321 60.173L296.48 59.9807L296.896 59.479C297.092 59.2539 297.285 59.029 297.482 58.8109C297.873 58.3711 298.269 57.9476 298.667 57.5398C299.463 56.723 300.274 55.9739 301.1 55.3031C301.923 54.6289 302.766 54.0443 303.608 53.5383C303.817 53.4098 304.032 53.2963 304.241 53.176C304.452 53.0714 304.656 52.9648 304.866 52.8666C305.081 52.7758 305.291 52.6819 305.503 52.5956C305.719 52.5147 305.932 52.435 306.143 52.3562C306.997 52.0603 307.833 51.8297 308.631 51.637C309.432 51.457 310.193 51.3037 310.911 51.2015L311.011 51.1876C309.809 51.0482 308.587 50.9775 307.35 50.9806C306.853 51.0982 306.344 51.2321 305.823 51.3925C305.597 51.4684 305.368 51.5451 305.137 51.6227C304.906 51.7075 304.675 51.8014 304.44 51.8925C304.207 51.9921 303.973 52.1046 303.737 52.214C303.512 52.3342 303.28 52.4485 303.055 52.5781C302.147 53.0878 301.24 53.6831 300.36 54.3698C299.477 55.0534 298.613 55.8179 297.772 56.6489C297.351 57.0637 296.934 57.4943 296.524 57.9402C296.317 58.1619 296.115 58.3894 295.91 58.6177L295.308 59.3208C295.226 59.4172 295.144 59.5167 295.062 59.6143C294.826 59.8949 294.592 60.1805 294.358 60.4706C293.087 62.0531 291.863 63.7716 290.729 65.6214C290.64 65.765 290.551 65.9088 290.461 66.0531C290.395 66.1672 290.33 66.2817 290.264 66.3961L290.207 66.4961L289.727 67.3327L289.696 67.388C289.52 67.6835 289.369 67.9952 289.205 68.3007C289.045 68.608 288.883 68.9164 288.721 69.2261C288.57 69.5414 288.419 69.8578 288.267 70.1754L288.04 70.653C287.962 70.8119 287.888 70.9724 287.82 71.1361C287.68 71.4619 287.539 71.7885 287.399 72.1165C287.328 72.2804 287.258 72.4446 287.188 72.6091C287.123 72.7763 287.059 72.9436 286.994 73.1111C286.98 73.1491 286.966 73.187 286.951 73.2249C286.794 73.6281 286.645 74.032 286.5 74.4361C285.699 76.6756 285.081 78.929 284.654 81.1513C284.137 83.8117 283.909 86.4303 283.907 88.9198C283.904 91.4101 284.125 93.7728 284.499 95.9521C284.881 98.1312 285.417 100.124 286.016 101.903C286.512 103.416 287.093 104.758 287.654 105.947C288.107 106.321 288.57 106.684 289.044 107.033C288.924 106.775 288.803 106.511 288.681 106.235C288.115 104.893 287.492 103.353 286.983 101.594C286.461 99.8404 285.995 97.8879 285.675 95.763C285.362 93.6376 285.191 91.3429 285.23 88.9312C285.268 86.5207 285.516 83.9933 286.035 81.4201C286.467 79.261 287.077 77.0703 287.863 74.8893C288.01 74.4782 288.163 74.0675 288.323 73.6574L288.331 73.6368L288.518 73.1498L288.723 72.6717C288.859 72.3535 288.995 72.0363 289.13 71.72C289.196 71.5609 289.268 71.4051 289.343 71.2507C289.416 71.0958 289.489 70.941 289.562 70.7867C289.708 70.4779 289.854 70.1702 290 69.8636C290.156 69.5623 290.312 69.2623 290.467 68.9633C290.625 68.666 290.769 68.3624 290.938 68.0743L291.137 67.7235L291.43 67.205C291.512 67.0607 291.593 66.9166 291.674 66.7729Z" fill="#263238"/>
<path d="M304.327 112.518L299.64 109.316C299.64 109.316 304.435 104.096 304.333 102.248C304.221 100.235 301.502 100.629 300.566 101.813C299.921 102.628 295.815 108.103 293.79 107.634C291.765 107.165 291.436 99.3586 288.873 98.4446C286.311 97.5307 285.104 101.483 285.104 101.483L278.487 89.8489L275.797 82.3431C275.797 82.3431 272.472 80.3455 273.713 86.502C274.955 92.6586 279.225 101.171 279.225 101.171C279.225 101.171 292.937 120.514 295.429 122.426C297.92 124.337 304.395 124.717 304.722 124.686C305.05 124.655 309.949 113.282 309.949 113.282L304.327 112.518Z" fill="#AE7461"/>
<path d="M369.929 197.508C369.929 197.508 387.899 236.075 377.674 242.145C374.144 244.241 368.579 234.974 368.579 234.974C368.579 234.974 317.637 193.069 312.772 183.129C307.906 173.189 293.751 119.629 293.751 119.629C293.751 119.629 303.859 117.074 302.751 117.308C302.751 117.308 318.787 141.436 322.831 151.097C325.369 157.159 330.062 170.241 330.062 170.241L354.877 193.489C354.877 193.489 365.358 191.113 369.929 197.508Z" fill="#AE7461"/>
<path d="M370.772 225.367C370.838 225.345 370.49 224.06 369.497 222.161C368.511 220.266 366.788 217.804 364.351 215.605C361.906 213.413 359.275 211.96 357.286 211.181C355.293 210.393 353.979 210.183 353.964 210.252C353.932 210.363 355.192 210.735 357.096 211.618C359.001 212.495 361.518 213.973 363.9 216.106C366.273 218.249 368.008 220.595 369.081 222.396C370.161 224.197 370.664 225.41 370.772 225.367Z" fill="#6F4439"/>
</svg>
